<?xml version="1.0" encoding="UTF-8" standalone="no"?>
<svg
   xmlns:dc="http://purl.org/dc/elements/1.1/"
   xmlns:cc="http://creativecommons.org/ns#"
   xmlns:rdf="http://www.w3.org/1999/02/22-rdf-syntax-ns#"
   xmlns:svg="http://www.w3.org/2000/svg"
   xmlns="http://www.w3.org/2000/svg"
   xmlns:sodipodi="http://sodipodi.sourceforge.net/DTD/sodipodi-0.dtd"
   xmlns:inkscape="http://www.inkscape.org/namespaces/inkscape"
   id="svg"
   version="1.1"
   width="400"
   height="400"
   viewBox="0, 0, 400,400"
   sodipodi:docname="ecell.svg"
   inkscape:version="1.0 (4035a4fb49, 2020-05-01)">
  <metadata
     id="metadata11">
    <rdf:RDF>
      <cc:Work
         rdf:about="">
        <dc:format>image/svg+xml</dc:format>
        <dc:type
           rdf:resource="http://purl.org/dc/dcmitype/StillImage" />
        <dc:title></dc:title>
      </cc:Work>
    </rdf:RDF>
  </metadata>
  <defs
     id="defs9">
    <filter
       id="filter1013"
       inkscape:label="Drop Shadow"
       style="color-interpolation-filters:sRGB;">
      <feFlood
         id="feFlood1003"
         result="flood"
         flood-color="rgb(0,0,0)"
         flood-opacity="0.85098" />
      <feComposite
         id="feComposite1005"
         result="composite1"
         operator="in"
         in2="SourceGraphic"
         in="flood" />
      <feGaussianBlur
         id="feGaussianBlur1007"
         result="blur"
         stdDeviation="10.9422"
         in="composite1" />
      <feOffset
         id="feOffset1009"
         result="offset"
         dy="20.997"
         dx="7.70393" />
      <feComposite
         id="feComposite1011"
         result="composite2"
         operator="over"
         in2="offset"
         in="SourceGraphic" />
    </filter>
    <filter
       id="filter1335"
       inkscape:label="Drop Shadow"
       style="color-interpolation-filters:sRGB;">
      <feFlood
         id="feFlood1325"
         result="flood"
         flood-color="rgb(0,0,0)"
         flood-opacity="0.85098" />
      <feComposite
         id="feComposite1327"
         result="composite1"
         operator="in"
         in2="SourceGraphic"
         in="flood" />
      <feGaussianBlur
         id="feGaussianBlur1329"
         result="blur"
         stdDeviation="10.9422"
         in="composite1" />
      <feOffset
         id="feOffset1331"
         result="offset"
         dy="17.3716"
         dx="10.423" />
      <feComposite
         id="feComposite1333"
         result="composite2"
         operator="over"
         in2="offset"
         in="SourceGraphic" />
    </filter>
    <filter
       style="color-interpolation-filters:sRGB"
       inkscape:label="Drop Shadow"
       id="filter1335-1">
      <feFlood
         flood-opacity="0.85098"
         flood-color="rgb(0,0,0)"
         result="flood"
         id="feFlood1325-0" />
      <feComposite
         in="flood"
         in2="SourceGraphic"
         operator="in"
         result="composite1"
         id="feComposite1327-5" />
      <feGaussianBlur
         in="composite1"
         stdDeviation="10.9422"
         result="blur"
         id="feGaussianBlur1329-3" />
      <feOffset
         dx="10.423"
         dy="17.3716"
         result="offset"
         id="feOffset1331-7" />
      <feComposite
         in="SourceGraphic"
         in2="offset"
         operator="over"
         result="composite2"
         id="feComposite1333-6" />
    </filter>
  </defs>
  <sodipodi:namedview
     inkscape:document-rotation="0"
     pagecolor="#ffffff"
     bordercolor="#666666"
     borderopacity="1"
     objecttolerance="10"
     gridtolerance="10"
     guidetolerance="10"
     inkscape:pageopacity="0"
     inkscape:pageshadow="2"
     inkscape:window-width="1920"
     inkscape:window-height="1001"
     id="namedview7"
     showgrid="false"
     inkscape:zoom="1.4990664"
     inkscape:cx="332.43595"
     inkscape:cy="487.13503"
     inkscape:window-x="-9"
     inkscape:window-y="-9"
     inkscape:window-maximized="1"
     inkscape:current-layer="svg" />
  <g
     style="fill:#ffffff;filter:url(#filter1335)"
     transform="matrix(0.84904318,0,0,0.84904318,29.583594,7.8651116)"
     id="svgg">
    <path
       style="fill:#ffffff"
       id="path0"
       d="m 260.027,63.447 c -0.425,1.227 -1.726,6.289 -1.726,6.719 0,1.401 1.91,0.457 2.327,-1.151 0.234,-0.902 0.587,-2.249 0.785,-2.992 0.197,-0.743 0.36,-1.635 0.361,-1.982 0.002,-0.74 -1.517,-1.257 -1.747,-0.594 m -44.969,1.674 c -37.279,1.994 -70.984,16.14 -97.267,40.821 -2.034,1.91 -4.04,3.917 -4.457,4.46 -0.418,0.544 0.369,-0.055 1.749,-1.329 5.216,-4.818 13.213,-10.878 19.846,-15.04 l 3.462,-2.172 0.628,0.833 c 0.456,0.604 0.856,0.76 1.461,0.569 0.866,-0.275 1.116,-1.15 0.447,-1.564 -1.032,-0.637 0.112,-1.49 6.081,-4.532 31.221,-15.916 66.856,-20.701 100.968,-13.558 5.677,1.188 5.119,1.374 6.058,-2.016 0.918,-3.31 1.205,-3.021 -3.934,-3.977 -11.47,-2.135 -24.467,-3.06 -35.042,-2.495 m 51.168,0.226 c -0.088,0.266 -0.588,1.873 -1.112,3.572 l -0.953,3.089 0.955,0.33 c 1.166,0.402 0.952,0.736 2.176,-3.404 0.777,-2.626 0.91,-3.532 0.553,-3.759 -0.706,-0.448 -1.44,-0.37 -1.619,0.172 M 58.462,71.718 C 24.758,107.422 6.048,147.79 0.703,196.332 c -0.799,7.259 -0.68,34.282 0.184,41.699 11.835,101.592 90.626,177.733 195.252,188.684 6.504,0.681 34.35,0.686 40.927,0.007 29.198,-3.012 54.241,-10.186 79.183,-22.684 7.111,-3.564 7.031,-3.505 6.288,-4.64 l -0.601,-0.917 -2.34,1.181 C 282.3,418.489 233.161,426.426 191.892,420.288 130.517,411.159 78.983,380.326 44.241,331.948 -13.113,252.082 -6.404,142.803 60.29,70.56 c 1.911,-2.071 3.327,-3.765 3.147,-3.765 -0.181,0 -2.42,2.216 -4.975,4.923 m 213.005,-1.379 c -0.653,1.949 -1.147,3.578 -1.096,3.62 1.231,1.02 1.753,0.508 2.998,-2.943 1.054,-2.923 1.177,-3.58 0.726,-3.865 -1.111,-0.704 -1.467,-0.272 -2.628,3.188 m 7.032,-0.551 c -0.133,0.371 -0.72,1.892 -1.305,3.378 -1.092,2.776 -1.075,3.124 0.17,3.346 0.971,0.173 3.703,-6.54 2.875,-7.065 -0.815,-0.517 -1.48,-0.387 -1.74,0.341 m 6.084,2.509 c -0.186,0.478 -0.869,2.04 -1.517,3.471 -1.168,2.582 -1.171,2.606 -0.381,3.028 1.02,0.546 1.157,0.384 2.791,-3.313 1.246,-2.818 1.31,-3.132 0.728,-3.572 -0.903,-0.684 -1.233,-0.605 -1.621,0.386 m 4.696,5.213 c -1.537,3.32 -1.561,4.343 -0.103,4.343 0.902,0 3.615,-6.674 2.92,-7.182 -1.113,-0.814 -1.139,-0.788 -2.817,2.839 m 5.703,3.011 c -1.468,2.782 -1.647,3.349 -1.159,3.658 0.965,0.609 1.372,0.433 2.035,-0.878 0.349,-0.69 1.115,-2.097 1.702,-3.127 1.04,-1.823 1.048,-1.887 0.329,-2.413 -1.067,-0.78 -1.012,-0.833 -2.907,2.76 m 5.784,2.795 c -0.952,1.617 -1.793,3.089 -1.868,3.272 -0.162,0.395 1.172,1.445 1.544,1.215 0.386,-0.238 3.921,-6.352 3.755,-6.494 -1.338,-1.151 -1.693,-0.944 -3.431,2.007 m 5.219,3.846 c -4.097,6.136 -4.413,7.046 -2.44,7.046 0.934,0 8.417,-12.171 7.774,-12.644 -1.062,-0.782 -1.099,-0.744 -5.334,5.598 m 5.621,3.191 c -2.468,3.393 -2.529,3.552 -1.58,4.144 1.019,0.637 5.462,-4.926 4.788,-5.995 -0.736,-1.165 -1.216,-0.888 -3.208,1.851 m 5.189,3.733 c -2.61,3.442 -2.593,3.402 -1.76,4.156 1.118,1.012 5.818,-4.893 4.795,-6.024 -0.886,-0.979 -0.865,-0.992 -3.035,1.868 m 4.79,4.411 c -2.39,2.695 -2.67,3.625 -1.239,4.102 0.425,0.142 5.137,-5.084 5.137,-5.696 0,-1.664 -1.584,-1.016 -3.898,1.594 m 4.766,4.187 c -2.651,2.883 -2.748,3.099 -1.682,3.764 1.243,0.776 6.213,-4.616 5.242,-5.688 -0.915,-1.011 -0.806,-1.07 -3.56,1.924 m 4.722,4.66 c -2.476,2.495 -2.624,2.737 -2.037,3.325 0.581,0.581 6.079,-3.503 6.095,-4.528 0.03,-1.827 -1.501,-1.374 -4.058,1.203 m 4.162,4.792 c -2.442,2.325 -2.568,2.526 -1.967,3.139 1.104,1.124 6.748,-3.814 5.743,-5.025 -0.747,-0.901 -0.957,-0.796 -3.776,1.886 m 4.232,4.809 c -2.739,2.233 -2.777,2.287 -2.112,3.09 l 0.676,0.818 2.96,-2.404 c 2.462,-1.999 2.898,-2.519 2.593,-3.09 -0.571,-1.067 -1.121,-0.855 -4.117,1.586 m 4.162,4.865 c -1.38,1.142 -2.492,2.262 -2.471,2.489 0.095,1.012 0.181,1.184 0.593,1.184 0.645,0 6.112,-3.985 6.119,-4.46 0.008,-0.529 -0.809,-1.338 -1.326,-1.311 -0.223,0.011 -1.534,0.955 -2.915,2.098 m 3.668,5.266 c -2.8,2.004 -3.126,2.495 -2.09,3.149 0.471,0.297 1.294,-0.074 3.571,-1.611 3.085,-2.081 3.258,-2.293 2.496,-3.054 -0.706,-0.706 -1.061,-0.571 -3.977,1.516 m 3.56,5.366 c -2.689,1.724 -2.962,2.007 -2.593,2.696 0.567,1.058 0.731,1.015 4.033,-1.065 2.953,-1.86 3.282,-2.277 2.452,-3.108 -0.638,-0.637 -0.533,-0.677 -3.892,1.477 m 3.776,5.252 c -3.696,2.098 -3.409,1.837 -3.098,2.817 0.348,1.098 0.738,1.011 4.045,-0.899 3.135,-1.812 3.358,-2.068 2.63,-3.028 -0.444,-0.585 -0.769,-0.484 -3.577,1.11 m 3.318,5.547 c -3.446,1.824 -3.658,2.018 -3.333,3.044 0.257,0.808 7.158,-2.058 7.158,-2.972 0,-1.56 -0.979,-1.579 -3.825,-0.072 m 2.184,6.068 c -2.965,1.366 -3.304,1.724 -2.634,2.783 0.356,0.562 6.978,-2.001 6.978,-2.701 0,-1.8 -0.588,-1.811 -4.344,-0.082 m -209.618,6.193 c -12.564,12.846 -20.375,28.154 -23.692,46.429 -1.064,5.863 -1.307,21.839 -0.326,21.461 0.396,-0.153 18.269,-6.365 39.717,-13.806 21.448,-7.441 53.765,-18.654 71.815,-24.917 18.05,-6.263 37.311,-12.935 42.803,-14.827 5.491,-1.892 10.142,-3.537 10.335,-3.656 0.286,-0.177 -0.104,-0.938 -1.433,-2.798 -0.081,-0.113 -19.765,6.681 -93.404,32.237 -12.529,4.348 -32.075,11.13 -43.436,15.071 -11.361,3.941 -20.874,7.248 -21.139,7.349 -0.729,0.278 -0.638,-12.141 0.132,-18.106 2.102,-16.271 9.097,-32.026 19.989,-45.016 1.825,-2.177 3.264,-3.958 3.197,-3.958 -0.067,0 -2.118,2.042 -4.558,4.537 m 212.226,-0.326 c -3.564,1.491 -6.217,2.821 -6.274,3.144 -0.289,1.662 0.513,1.525 7.259,-1.238 7.894,-3.232 7.093,-2.772 6.56,-3.767 -0.574,-1.073 -0.475,-1.098 -7.545,1.861 m -279.737,0.622 c -0.691,0.833 -0.268,1.477 1.356,2.064 1.425,0.515 2.096,0.26 2.119,-0.808 0.015,-0.737 -3.001,-1.827 -3.475,-1.256 m 282.15,5.341 c -3.377,1.216 -3.688,1.482 -3.002,2.568 0.317,0.501 0.813,0.424 3.696,-0.575 3.712,-1.287 3.698,-1.276 3.391,-2.447 -0.262,-1.005 0.065,-1.041 -4.085,0.454 m 1.915,6.11 c -3.326,1.142 -3.839,1.676 -2.805,2.921 0.093,0.113 6.91,-1.843 7.112,-2.041 0.24,-0.234 -0.331,-2.108 -0.632,-2.075 -0.156,0.016 -1.809,0.554 -3.675,1.195 m 1.558,6.238 c -2.321,0.637 -2.992,0.977 -2.992,1.517 0,1.08 0.761,1.143 4.194,0.343 3.635,-0.846 3.688,-0.877 3.344,-1.959 -0.306,-0.965 -0.701,-0.957 -4.546,0.099 m 1.931,6.153 c -3.063,0.715 -3.379,0.873 -3.379,1.694 0,0.628 0.222,0.905 0.725,0.905 1.009,0 6.357,-1.2 6.695,-1.503 0.32,-0.285 -0.051,-1.994 -0.418,-1.927 -0.135,0.024 -1.765,0.398 -3.623,0.831 m 1.158,6.364 c -3.132,0.541 -3.378,0.65 -3.378,1.498 0,0.545 0.228,0.915 0.563,0.915 1.325,0 6.608,-0.892 6.908,-1.167 0.36,-0.33 -0.029,-1.95 -0.451,-1.875 -0.145,0.025 -1.784,0.308 -3.642,0.629 m 0.367,6.395 c -2.733,0.353 -3,0.463 -2.895,1.195 0.106,0.747 0.333,0.801 3.011,0.715 4.06,-0.13 4.633,-0.31 4.633,-1.459 0,-1.082 0.086,-1.074 -4.749,-0.451 m 1.274,6.322 c -4.852,0.366 -5.25,2.054 -0.483,2.046 3.946,-0.007 4.73,-0.238 4.73,-1.391 0,-0.991 0.071,-0.98 -4.247,-0.655 m -0.386,4.774 c -2.867,0.151 -5.516,0.295 -5.888,0.32 -0.449,0.031 -0.676,0.366 -0.676,0.998 v 0.953 l 7.047,-0.213 c 8.185,-0.246 8.011,-0.214 8.011,-1.487 0,-1.11 0.773,-1.058 -8.494,-0.571 m -2.703,7.509 v 0.965 h 3.861 3.861 v -0.965 -0.965 h -3.861 -3.861 v 0.965 m 0,6.177 c 0,0.795 0.188,0.966 1.062,0.968 0.584,0.002 2.21,0.112 3.613,0.244 2.499,0.236 2.556,0.221 2.737,-0.728 0.174,-0.911 0.066,-0.984 -1.779,-1.206 -4.306,-0.517 -5.633,-0.347 -5.633,0.722 m -0.481,6.181 c -0.203,1.06 -0.053,1.108 4.825,1.557 2.595,0.238 2.606,0.235 2.606,-0.739 0,-1.077 -0.286,-1.168 -4.88,-1.562 -2.279,-0.196 -2.377,-0.167 -2.551,0.744 m -0.6,6.338 c 0.109,0.929 0.314,1.022 3.205,1.447 4.135,0.609 3.934,0.626 4.187,-0.339 0.308,-1.178 0.281,-1.19 -3.838,-1.671 l -3.669,-0.429 0.115,0.992 m -1.106,6.04 c -0.354,0.923 0.172,1.178 3.732,1.812 3.648,0.649 3.861,0.614 3.861,-0.635 0,-0.796 -0.274,-0.918 -2.993,-1.332 -3.865,-0.588 -4.32,-0.572 -4.6,0.155 m -292.118,5.067 c -0.409,0.107 -0.675,0.546 -0.675,1.113 0,0.981 0.53,1.147 2.22,0.694 0.592,-0.159 0.868,-0.525 0.868,-1.153 0,-0.934 -0.66,-1.112 -2.413,-0.654 m 291.042,0.423 c -0.116,0.116 -0.212,0.584 -0.212,1.039 0,1.094 6.763,2.664 7.367,1.71 0.494,-0.78 0.433,-1.506 -0.127,-1.518 -0.266,-0.005 -1.908,-0.332 -3.65,-0.726 -1.742,-0.394 -3.262,-0.621 -3.378,-0.505 m -1.575,6.685 c -0.348,1.095 -0.103,1.245 3.639,2.244 2.636,0.703 3.302,0.769 3.566,0.353 0.632,-0.998 0.316,-1.453 -1.305,-1.876 -0.902,-0.235 -2.498,-0.677 -3.545,-0.98 -1.047,-0.303 -1.948,-0.552 -2.001,-0.552 -0.053,0 -0.213,0.365 -0.354,0.811 m -1.858,6.219 c -0.27,1.031 -0.671,0.772 3.138,2.027 3.353,1.105 4.33,1.086 4.33,-0.085 0,-0.542 -0.741,-0.946 -3.208,-1.749 -3.875,-1.262 -3.979,-1.267 -4.26,-0.193 m -1.993,5.719 c -0.341,1.074 -0.323,1.088 3.388,2.533 3.285,1.279 3.509,1.277 3.907,-0.048 0.21,-0.698 -0.126,-0.911 -2.949,-1.862 -1.752,-0.59 -3.388,-1.157 -3.636,-1.259 -0.247,-0.102 -0.567,0.184 -0.71,0.636 m -2.356,6.003 c -0.296,1.181 -0.622,0.934 3.281,2.485 3.115,1.238 3.259,1.26 3.764,0.569 0.752,-1.028 0.702,-1.109 -1.116,-1.795 -0.902,-0.34 -2.55,-0.982 -3.662,-1.427 l -2.022,-0.808 -0.245,0.976 m -2.459,5.556 c -0.582,1.087 -0.663,1.012 2.976,2.718 3.129,1.466 3.406,1.531 3.861,0.91 0.818,-1.12 0.841,-1.102 -4.424,-3.462 -1.965,-0.88 -2.029,-0.885 -2.413,-0.166 m -76.375,7.336 c -28.131,22.994 -67.444,27.332 -99.925,11.028 l -6.214,-3.119 -1.701,2.888 c -0.936,1.588 -1.758,3.021 -1.826,3.185 -0.235,0.558 10.926,5.681 16.186,7.428 32.518,10.804 68.703,2.895 93.205,-20.373 4.087,-3.881 4.179,-4.228 0.275,-1.037 m 73.511,-1.689 c -0.396,1.031 -0.33,1.093 3.052,2.872 2.788,1.467 3.344,1.641 3.662,1.15 0.675,-1.04 0.415,-1.331 -2.675,-2.992 -3.397,-1.827 -3.703,-1.905 -4.039,-1.03 m -2.913,5.521 c -0.225,0.422 -0.41,0.85 -0.41,0.952 0,0.662 6.281,3.735 6.783,3.319 1.181,-0.98 1.016,-1.156 -3.38,-3.601 -2.495,-1.388 -2.596,-1.41 -2.993,-0.67 m -6.475,3.622 c -0.567,1.243 11.718,9.181 12.538,8.101 0.778,-1.025 0.531,-1.249 -5.733,-5.199 -6.755,-4.259 -6.279,-4.057 -6.805,-2.902 m -0.485,7.208 c -0.635,1.187 5.559,5.48 6.368,4.413 0.78,-1.031 0.839,-0.952 -2.322,-3.149 -3.228,-2.244 -3.479,-2.323 -4.046,-1.264 m -3.411,4.737 c -1.174,1.174 4.567,6.154 5.811,5.041 0.984,-0.881 0.941,-0.947 -2.167,-3.328 -3.168,-2.426 -3.007,-2.35 -3.644,-1.713 m -4.274,5.233 c -0.602,1.125 5.246,5.928 5.986,4.916 0.77,-1.054 0.763,-1.066 -2.122,-3.426 -2.871,-2.348 -3.313,-2.519 -3.864,-1.49 m -3.834,4.419 c -0.786,0.786 -0.547,1.2 2.019,3.494 2.704,2.418 2.96,2.527 3.736,1.591 0.459,-0.552 0.196,-0.925 -2.172,-3.078 -2.961,-2.691 -2.921,-2.669 -3.583,-2.007 m -4.728,4.771 c -0.526,0.633 4.355,6.126 5.194,5.846 1.464,-0.488 1.14,-1.46 -1.31,-3.932 -2.633,-2.656 -3.084,-2.879 -3.884,-1.914 m -4.153,4.11 c -0.732,0.732 -0.603,0.989 1.924,3.832 2.369,2.666 2.392,2.68 3.142,1.93 0.75,-0.75 0.738,-0.776 -1.693,-3.491 -2.633,-2.94 -2.675,-2.969 -3.373,-2.271 m 31.197,0.613 c 0,0.38 8.299,15.077 8.811,15.602 0.144,0.148 2.235,-2.252 4.646,-5.334 2.411,-3.081 4.322,-5.648 4.247,-5.704 -0.075,-0.056 -3.872,-1.116 -8.437,-2.355 -4.566,-1.24 -8.519,-2.331 -8.784,-2.425 -0.266,-0.094 -0.483,0.003 -0.483,0.216 m -36.034,3.731 c -0.669,0.506 3.354,6.389 4.369,6.389 1.731,0 1.43,-1.446 -0.845,-4.059 -2.703,-3.104 -2.595,-3.033 -3.524,-2.33 m -4.722,3.856 c -0.886,0.656 -0.731,0.99 2.078,4.502 1.67,2.086 3.157,2.545 3.157,0.974 0,-0.287 -4.21,-6.032 -4.42,-6.032 -0.036,0 -0.403,0.25 -0.815,0.556 m -5.112,3.769 c -0.692,0.692 -0.631,0.851 1.546,3.982 2.203,3.168 2.234,3.191 3.11,2.215 0.559,-0.624 0.441,-0.908 -1.513,-3.668 -2.223,-3.138 -2.396,-3.277 -3.143,-2.529 m -5.243,3.585 c -0.693,0.524 -0.641,0.681 1.165,3.529 2.058,3.244 2.351,3.486 3.344,2.756 0.56,-0.412 -2.966,-6.946 -3.694,-6.846 -0.049,0.006 -0.416,0.259 -0.815,0.561 m -5.408,3.4 c -0.734,0.536 2.461,6.805 3.48,6.828 1.49,0.032 1.369,-1.16 -0.431,-4.231 -1.939,-3.306 -2.004,-3.361 -3.049,-2.597 m -5.472,3.138 c -0.412,0.301 -0.632,0.664 -0.489,0.807 0.421,0.421 1.862,-0.2 1.862,-0.802 0,-0.7 -0.421,-0.702 -1.373,-0.005 m -12.849,2.108 c -0.611,0.387 0.871,4.298 1.625,4.288 1.283,-0.018 1.417,-0.623 0.584,-2.628 -0.826,-1.988 -1.222,-2.286 -2.209,-1.66 m 7.005,0.681 c -0.254,0.103 -0.369,0.427 -0.257,0.719 0.159,0.414 0.407,0.439 1.124,0.112 1.392,-0.635 0.574,-1.417 -0.867,-0.831 m -11.304,5.142 c -0.313,0.198 -0.456,0.471 -0.319,0.609 0.338,0.337 1.852,-0.169 1.852,-0.62 0,-0.459 -0.798,-0.454 -1.533,0.011 m -5.731,1.988 c -0.492,0.185 -0.795,0.496 -0.675,0.69 0.241,0.391 1.662,0.126 1.967,-0.366 0.32,-0.518 -0.341,-0.684 -1.292,-0.324 m -6.636,2.274 c 0,0.213 0.338,0.386 0.75,0.386 0.412,0 0.857,-0.173 0.988,-0.386 0.135,-0.219 -0.189,-0.386 -0.749,-0.386 -0.544,0 -0.989,0.174 -0.989,0.386 m -68.144,1.917 c -0.299,1.77 -0.062,2.33 0.986,2.33 0.475,0 0.749,-0.264 0.749,-0.724 0,-0.398 0.109,-1.266 0.242,-1.93 0.219,-1.098 0.152,-1.207 -0.739,-1.207 -0.84,0 -1.016,0.218 -1.238,1.531 m 62.353,-0.372 c -0.451,0.291 -0.345,0.375 0.483,0.38 0.584,0.003 1.061,-0.168 1.061,-0.38 0,-0.489 -0.789,-0.489 -1.544,0 m -6.564,1.544 c 0,0.212 0.337,0.386 0.75,0.386 0.412,0 0.856,-0.174 0.988,-0.386 0.135,-0.219 -0.189,-0.386 -0.75,-0.386 -0.543,0 -0.988,0.174 -0.988,0.386 m -6.177,1.158 c 0,0.489 0.789,0.489 1.544,0 0.451,-0.291 0.345,-0.375 -0.483,-0.38 -0.584,-0.003 -1.061,0.168 -1.061,0.38 m -5.985,0.773 c -0.131,0.212 0.109,0.386 0.534,0.386 0.424,0 0.879,-0.174 1.01,-0.386 0.132,-0.213 -0.108,-0.387 -0.533,-0.387 -0.425,0 -0.88,0.174 -1.011,0.387"
       stroke="none"
       fill="#26aae3"
       fill-rule="evenodd" />
    <path
       style="fill:#ffffff"
       id="path1"
       d="M 204.633,0.405 C 62.753,12.296 -28.721,149.044 17.268,280.502 c 25.951,74.179 92.684,127.599 174.624,139.786 34.399,5.116 74.125,0.624 108.212,-12.237 8.946,-3.375 27.266,-11.677 27.848,-12.619 0.141,-0.229 -7.233,-13.091 -16.387,-28.582 l -16.644,-28.166 -4.121,2.058 c -5.53,2.761 -8.75,4.228 -11.07,5.044 -1.062,0.374 -2.118,0.819 -2.347,0.991 -0.229,0.171 -1.619,0.68 -3.089,1.132 -1.47,0.451 -2.853,0.967 -3.074,1.146 -0.221,0.18 -0.93,0.419 -1.575,0.533 -0.646,0.114 -1.942,0.486 -2.88,0.827 -15.818,5.749 -43.567,8.171 -63.676,5.556 -6.748,-0.877 -8.028,-1.089 -12.697,-2.1 -14.937,-3.233 -40.623,-13.118 -45.13,-17.366 -0.057,-0.054 5.484,-9.55 12.314,-21.101 6.829,-11.551 12.61,-21.441 12.845,-21.976 0.236,-0.536 1.194,-2.278 2.13,-3.873 l 1.701,-2.898 6.214,3.119 c 54.703,27.459 121.026,-5.149 131.161,-64.486 0.857,-5.018 1.449,-19.067 0.863,-20.482 -0.313,-0.753 -1.724,-0.304 -30.637,9.739 -16.67,5.79 -36.824,12.776 -44.787,15.525 -7.964,2.748 -27.51,9.516 -43.437,15.039 -81.881,28.397 -102.702,35.584 -103.081,35.584 -1.025,0 -7.385,-13.68 -10.412,-22.394 -5.852,-16.847 -7.739,-28.398 -7.725,-47.297 0.015,-20.362 2.183,-32.146 9.661,-52.51 3.546,-9.653 14.618,-28.875 20.657,-35.858 0.758,-0.877 1.755,-2.139 2.216,-2.806 0.461,-0.666 1.405,-1.814 2.097,-2.55 0.693,-0.736 2.475,-2.676 3.962,-4.31 22.221,-24.43 53.157,-40.755 87.452,-46.15 18.332,-2.884 42.401,-2.059 56.694,1.944 3.339,0.935 3.115,1.079 4.156,-2.671 7.292,-26.267 16.398,-59.629 16.302,-59.726 -0.847,-0.842 -20.2,-4.206 -31.4,-5.457 -6.316,-0.706 -33.101,-1.047 -39.575,-0.505 m 104.155,55.099 c -2.481,0.34 -4.377,3.87 -3.377,6.286 1.195,2.884 5.142,4.107 7.436,2.303 1.3,-1.023 0.816,-1.211 6.579,2.554 73.34,47.923 100.083,140.338 62.95,217.536 l -2.885,5.998 -2.323,-0.013 c -5.164,-0.03 -7.069,6.653 -2.513,8.815 4.521,2.145 9.494,-3.013 6.486,-6.727 -0.707,-0.873 -0.688,-0.932 2.077,-6.703 19.267,-40.208 22.176,-86.339 8.109,-128.603 -12.324,-37.027 -36.451,-68.224 -70.091,-90.63 -6.02,-4.01 -6.364,-4.306 -6.248,-5.37 0.382,-3.51 -2.413,-5.966 -6.2,-5.446 m -94.309,67.299 c -47.389,3.875 -83.205,42.041 -83.205,88.664 0,5.251 0.108,6.721 0.483,6.578 0.265,-0.101 9.778,-3.408 21.139,-7.349 11.361,-3.941 30.907,-10.723 43.436,-15.071 29.964,-10.399 92.559,-31.997 96.687,-33.362 4.126,-1.363 4.117,-1.248 0.48,-5.758 -18.908,-23.449 -48.751,-36.177 -79.02,-33.702"
       stroke="none"
       fill="#040404"
       fill-rule="evenodd" />
  </g>
  <path
     transform="matrix(0.84904318,0,0,0.84904318,-442.09692,296.20428)"
     style="fill:#00ffff;filter:url(#filter1335-1)"
     id="path0-8"
     d="m 260.027,63.447 c -0.425,1.227 -1.726,6.289 -1.726,6.719 0,1.401 1.91,0.457 2.327,-1.151 0.234,-0.902 0.587,-2.249 0.785,-2.992 0.197,-0.743 0.36,-1.635 0.361,-1.982 0.002,-0.74 -1.517,-1.257 -1.747,-0.594 m -44.969,1.674 c -37.279,1.994 -70.984,16.14 -97.267,40.821 -2.034,1.91 -4.04,3.917 -4.457,4.46 -0.418,0.544 0.369,-0.055 1.749,-1.329 5.216,-4.818 13.213,-10.878 19.846,-15.04 l 3.462,-2.172 0.628,0.833 c 0.456,0.604 0.856,0.76 1.461,0.569 0.866,-0.275 1.116,-1.15 0.447,-1.564 -1.032,-0.637 0.112,-1.49 6.081,-4.532 31.221,-15.916 66.856,-20.701 100.968,-13.558 5.677,1.188 5.119,1.374 6.058,-2.016 0.918,-3.31 1.205,-3.021 -3.934,-3.977 -11.47,-2.135 -24.467,-3.06 -35.042,-2.495 m 51.168,0.226 c -0.088,0.266 -0.588,1.873 -1.112,3.572 l -0.953,3.089 0.955,0.33 c 1.166,0.402 0.952,0.736 2.176,-3.404 0.777,-2.626 0.91,-3.532 0.553,-3.759 -0.706,-0.448 -1.44,-0.37 -1.619,0.172 M 58.462,71.718 C 24.758,107.422 6.048,147.79 0.703,196.332 c -0.799,7.259 -0.68,34.282 0.184,41.699 11.835,101.592 90.626,177.733 195.252,188.684 6.504,0.681 34.35,0.686 40.927,0.007 29.198,-3.012 54.241,-10.186 79.183,-22.684 7.111,-3.564 7.031,-3.505 6.288,-4.64 l -0.601,-0.917 -2.34,1.181 C 282.3,418.489 233.161,426.426 191.892,420.288 130.517,411.159 78.983,380.326 44.241,331.948 -13.113,252.082 -6.404,142.803 60.29,70.56 c 1.911,-2.071 3.327,-3.765 3.147,-3.765 -0.181,0 -2.42,2.216 -4.975,4.923 m 213.005,-1.379 c -0.653,1.949 -1.147,3.578 -1.096,3.62 1.231,1.02 1.753,0.508 2.998,-2.943 1.054,-2.923 1.177,-3.58 0.726,-3.865 -1.111,-0.704 -1.467,-0.272 -2.628,3.188 m 7.032,-0.551 c -0.133,0.371 -0.72,1.892 -1.305,3.378 -1.092,2.776 -1.075,3.124 0.17,3.346 0.971,0.173 3.703,-6.54 2.875,-7.065 -0.815,-0.517 -1.48,-0.387 -1.74,0.341 m 6.084,2.509 c -0.186,0.478 -0.869,2.04 -1.517,3.471 -1.168,2.582 -1.171,2.606 -0.381,3.028 1.02,0.546 1.157,0.384 2.791,-3.313 1.246,-2.818 1.31,-3.132 0.728,-3.572 -0.903,-0.684 -1.233,-0.605 -1.621,0.386 m 4.696,5.213 c -1.537,3.32 -1.561,4.343 -0.103,4.343 0.902,0 3.615,-6.674 2.92,-7.182 -1.113,-0.814 -1.139,-0.788 -2.817,2.839 m 5.703,3.011 c -1.468,2.782 -1.647,3.349 -1.159,3.658 0.965,0.609 1.372,0.433 2.035,-0.878 0.349,-0.69 1.115,-2.097 1.702,-3.127 1.04,-1.823 1.048,-1.887 0.329,-2.413 -1.067,-0.78 -1.012,-0.833 -2.907,2.76 m 5.784,2.795 c -0.952,1.617 -1.793,3.089 -1.868,3.272 -0.162,0.395 1.172,1.445 1.544,1.215 0.386,-0.238 3.921,-6.352 3.755,-6.494 -1.338,-1.151 -1.693,-0.944 -3.431,2.007 m 5.219,3.846 c -4.097,6.136 -4.413,7.046 -2.44,7.046 0.934,0 8.417,-12.171 7.774,-12.644 -1.062,-0.782 -1.099,-0.744 -5.334,5.598 m 5.621,3.191 c -2.468,3.393 -2.529,3.552 -1.58,4.144 1.019,0.637 5.462,-4.926 4.788,-5.995 -0.736,-1.165 -1.216,-0.888 -3.208,1.851 m 5.189,3.733 c -2.61,3.442 -2.593,3.402 -1.76,4.156 1.118,1.012 5.818,-4.893 4.795,-6.024 -0.886,-0.979 -0.865,-0.992 -3.035,1.868 m 4.79,4.411 c -2.39,2.695 -2.67,3.625 -1.239,4.102 0.425,0.142 5.137,-5.084 5.137,-5.696 0,-1.664 -1.584,-1.016 -3.898,1.594 m 4.766,4.187 c -2.651,2.883 -2.748,3.099 -1.682,3.764 1.243,0.776 6.213,-4.616 5.242,-5.688 -0.915,-1.011 -0.806,-1.07 -3.56,1.924 m 4.722,4.66 c -2.476,2.495 -2.624,2.737 -2.037,3.325 0.581,0.581 6.079,-3.503 6.095,-4.528 0.03,-1.827 -1.501,-1.374 -4.058,1.203 m 4.162,4.792 c -2.442,2.325 -2.568,2.526 -1.967,3.139 1.104,1.124 6.748,-3.814 5.743,-5.025 -0.747,-0.901 -0.957,-0.796 -3.776,1.886 m 4.232,4.809 c -2.739,2.233 -2.777,2.287 -2.112,3.09 l 0.676,0.818 2.96,-2.404 c 2.462,-1.999 2.898,-2.519 2.593,-3.09 -0.571,-1.067 -1.121,-0.855 -4.117,1.586 m 4.162,4.865 c -1.38,1.142 -2.492,2.262 -2.471,2.489 0.095,1.012 0.181,1.184 0.593,1.184 0.645,0 6.112,-3.985 6.119,-4.46 0.008,-0.529 -0.809,-1.338 -1.326,-1.311 -0.223,0.011 -1.534,0.955 -2.915,2.098 m 3.668,5.266 c -2.8,2.004 -3.126,2.495 -2.09,3.149 0.471,0.297 1.294,-0.074 3.571,-1.611 3.085,-2.081 3.258,-2.293 2.496,-3.054 -0.706,-0.706 -1.061,-0.571 -3.977,1.516 m 3.56,5.366 c -2.689,1.724 -2.962,2.007 -2.593,2.696 0.567,1.058 0.731,1.015 4.033,-1.065 2.953,-1.86 3.282,-2.277 2.452,-3.108 -0.638,-0.637 -0.533,-0.677 -3.892,1.477 m 3.776,5.252 c -3.696,2.098 -3.409,1.837 -3.098,2.817 0.348,1.098 0.738,1.011 4.045,-0.899 3.135,-1.812 3.358,-2.068 2.63,-3.028 -0.444,-0.585 -0.769,-0.484 -3.577,1.11 m 3.318,5.547 c -3.446,1.824 -3.658,2.018 -3.333,3.044 0.257,0.808 7.158,-2.058 7.158,-2.972 0,-1.56 -0.979,-1.579 -3.825,-0.072 m 2.184,6.068 c -2.965,1.366 -3.304,1.724 -2.634,2.783 0.356,0.562 6.978,-2.001 6.978,-2.701 0,-1.8 -0.588,-1.811 -4.344,-0.082 m -209.618,6.193 c -12.564,12.846 -20.375,28.154 -23.692,46.429 -1.064,5.863 -1.307,21.839 -0.326,21.461 0.396,-0.153 18.269,-6.365 39.717,-13.806 21.448,-7.441 53.765,-18.654 71.815,-24.917 18.05,-6.263 37.311,-12.935 42.803,-14.827 5.491,-1.892 10.142,-3.537 10.335,-3.656 0.286,-0.177 -0.104,-0.938 -1.433,-2.798 -0.081,-0.113 -19.765,6.681 -93.404,32.237 -12.529,4.348 -32.075,11.13 -43.436,15.071 -11.361,3.941 -20.874,7.248 -21.139,7.349 -0.729,0.278 -0.638,-12.141 0.132,-18.106 2.102,-16.271 9.097,-32.026 19.989,-45.016 1.825,-2.177 3.264,-3.958 3.197,-3.958 -0.067,0 -2.118,2.042 -4.558,4.537 m 212.226,-0.326 c -3.564,1.491 -6.217,2.821 -6.274,3.144 -0.289,1.662 0.513,1.525 7.259,-1.238 7.894,-3.232 7.093,-2.772 6.56,-3.767 -0.574,-1.073 -0.475,-1.098 -7.545,1.861 m -279.737,0.622 c -0.691,0.833 -0.268,1.477 1.356,2.064 1.425,0.515 2.096,0.26 2.119,-0.808 0.015,-0.737 -3.001,-1.827 -3.475,-1.256 m 282.15,5.341 c -3.377,1.216 -3.688,1.482 -3.002,2.568 0.317,0.501 0.813,0.424 3.696,-0.575 3.712,-1.287 3.698,-1.276 3.391,-2.447 -0.262,-1.005 0.065,-1.041 -4.085,0.454 m 1.915,6.11 c -3.326,1.142 -3.839,1.676 -2.805,2.921 0.093,0.113 6.91,-1.843 7.112,-2.041 0.24,-0.234 -0.331,-2.108 -0.632,-2.075 -0.156,0.016 -1.809,0.554 -3.675,1.195 m 1.558,6.238 c -2.321,0.637 -2.992,0.977 -2.992,1.517 0,1.08 0.761,1.143 4.194,0.343 3.635,-0.846 3.688,-0.877 3.344,-1.959 -0.306,-0.965 -0.701,-0.957 -4.546,0.099 m 1.931,6.153 c -3.063,0.715 -3.379,0.873 -3.379,1.694 0,0.628 0.222,0.905 0.725,0.905 1.009,0 6.357,-1.2 6.695,-1.503 0.32,-0.285 -0.051,-1.994 -0.418,-1.927 -0.135,0.024 -1.765,0.398 -3.623,0.831 m 1.158,6.364 c -3.132,0.541 -3.378,0.65 -3.378,1.498 0,0.545 0.228,0.915 0.563,0.915 1.325,0 6.608,-0.892 6.908,-1.167 0.36,-0.33 -0.029,-1.95 -0.451,-1.875 -0.145,0.025 -1.784,0.308 -3.642,0.629 m 0.367,6.395 c -2.733,0.353 -3,0.463 -2.895,1.195 0.106,0.747 0.333,0.801 3.011,0.715 4.06,-0.13 4.633,-0.31 4.633,-1.459 0,-1.082 0.086,-1.074 -4.749,-0.451 m 1.274,6.322 c -4.852,0.366 -5.25,2.054 -0.483,2.046 3.946,-0.007 4.73,-0.238 4.73,-1.391 0,-0.991 0.071,-0.98 -4.247,-0.655 m -0.386,4.774 c -2.867,0.151 -5.516,0.295 -5.888,0.32 -0.449,0.031 -0.676,0.366 -0.676,0.998 v 0.953 l 7.047,-0.213 c 8.185,-0.246 8.011,-0.214 8.011,-1.487 0,-1.11 0.773,-1.058 -8.494,-0.571 m -2.703,7.509 v 0.965 h 3.861 3.861 v -0.965 -0.965 h -3.861 -3.861 v 0.965 m 0,6.177 c 0,0.795 0.188,0.966 1.062,0.968 0.584,0.002 2.21,0.112 3.613,0.244 2.499,0.236 2.556,0.221 2.737,-0.728 0.174,-0.911 0.066,-0.984 -1.779,-1.206 -4.306,-0.517 -5.633,-0.347 -5.633,0.722 m -0.481,6.181 c -0.203,1.06 -0.053,1.108 4.825,1.557 2.595,0.238 2.606,0.235 2.606,-0.739 0,-1.077 -0.286,-1.168 -4.88,-1.562 -2.279,-0.196 -2.377,-0.167 -2.551,0.744 m -0.6,6.338 c 0.109,0.929 0.314,1.022 3.205,1.447 4.135,0.609 3.934,0.626 4.187,-0.339 0.308,-1.178 0.281,-1.19 -3.838,-1.671 l -3.669,-0.429 0.115,0.992 m -1.106,6.04 c -0.354,0.923 0.172,1.178 3.732,1.812 3.648,0.649 3.861,0.614 3.861,-0.635 0,-0.796 -0.274,-0.918 -2.993,-1.332 -3.865,-0.588 -4.32,-0.572 -4.6,0.155 m -292.118,5.067 c -0.409,0.107 -0.675,0.546 -0.675,1.113 0,0.981 0.53,1.147 2.22,0.694 0.592,-0.159 0.868,-0.525 0.868,-1.153 0,-0.934 -0.66,-1.112 -2.413,-0.654 m 291.042,0.423 c -0.116,0.116 -0.212,0.584 -0.212,1.039 0,1.094 6.763,2.664 7.367,1.71 0.494,-0.78 0.433,-1.506 -0.127,-1.518 -0.266,-0.005 -1.908,-0.332 -3.65,-0.726 -1.742,-0.394 -3.262,-0.621 -3.378,-0.505 m -1.575,6.685 c -0.348,1.095 -0.103,1.245 3.639,2.244 2.636,0.703 3.302,0.769 3.566,0.353 0.632,-0.998 0.316,-1.453 -1.305,-1.876 -0.902,-0.235 -2.498,-0.677 -3.545,-0.98 -1.047,-0.303 -1.948,-0.552 -2.001,-0.552 -0.053,0 -0.213,0.365 -0.354,0.811 m -1.858,6.219 c -0.27,1.031 -0.671,0.772 3.138,2.027 3.353,1.105 4.33,1.086 4.33,-0.085 0,-0.542 -0.741,-0.946 -3.208,-1.749 -3.875,-1.262 -3.979,-1.267 -4.26,-0.193 m -1.993,5.719 c -0.341,1.074 -0.323,1.088 3.388,2.533 3.285,1.279 3.509,1.277 3.907,-0.048 0.21,-0.698 -0.126,-0.911 -2.949,-1.862 -1.752,-0.59 -3.388,-1.157 -3.636,-1.259 -0.247,-0.102 -0.567,0.184 -0.71,0.636 m -2.356,6.003 c -0.296,1.181 -0.622,0.934 3.281,2.485 3.115,1.238 3.259,1.26 3.764,0.569 0.752,-1.028 0.702,-1.109 -1.116,-1.795 -0.902,-0.34 -2.55,-0.982 -3.662,-1.427 l -2.022,-0.808 -0.245,0.976 m -2.459,5.556 c -0.582,1.087 -0.663,1.012 2.976,2.718 3.129,1.466 3.406,1.531 3.861,0.91 0.818,-1.12 0.841,-1.102 -4.424,-3.462 -1.965,-0.88 -2.029,-0.885 -2.413,-0.166 m -76.375,7.336 c -28.131,22.994 -67.444,27.332 -99.925,11.028 l -6.214,-3.119 -1.701,2.888 c -0.936,1.588 -1.758,3.021 -1.826,3.185 -0.235,0.558 10.926,5.681 16.186,7.428 32.518,10.804 68.703,2.895 93.205,-20.373 4.087,-3.881 4.179,-4.228 0.275,-1.037 m 73.511,-1.689 c -0.396,1.031 -0.33,1.093 3.052,2.872 2.788,1.467 3.344,1.641 3.662,1.15 0.675,-1.04 0.415,-1.331 -2.675,-2.992 -3.397,-1.827 -3.703,-1.905 -4.039,-1.03 m -2.913,5.521 c -0.225,0.422 -0.41,0.85 -0.41,0.952 0,0.662 6.281,3.735 6.783,3.319 1.181,-0.98 1.016,-1.156 -3.38,-3.601 -2.495,-1.388 -2.596,-1.41 -2.993,-0.67 m -6.475,3.622 c -0.567,1.243 11.718,9.181 12.538,8.101 0.778,-1.025 0.531,-1.249 -5.733,-5.199 -6.755,-4.259 -6.279,-4.057 -6.805,-2.902 m -0.485,7.208 c -0.635,1.187 5.559,5.48 6.368,4.413 0.78,-1.031 0.839,-0.952 -2.322,-3.149 -3.228,-2.244 -3.479,-2.323 -4.046,-1.264 m -3.411,4.737 c -1.174,1.174 4.567,6.154 5.811,5.041 0.984,-0.881 0.941,-0.947 -2.167,-3.328 -3.168,-2.426 -3.007,-2.35 -3.644,-1.713 m -4.274,5.233 c -0.602,1.125 5.246,5.928 5.986,4.916 0.77,-1.054 0.763,-1.066 -2.122,-3.426 -2.871,-2.348 -3.313,-2.519 -3.864,-1.49 m -3.834,4.419 c -0.786,0.786 -0.547,1.2 2.019,3.494 2.704,2.418 2.96,2.527 3.736,1.591 0.459,-0.552 0.196,-0.925 -2.172,-3.078 -2.961,-2.691 -2.921,-2.669 -3.583,-2.007 m -4.728,4.771 c -0.526,0.633 4.355,6.126 5.194,5.846 1.464,-0.488 1.14,-1.46 -1.31,-3.932 -2.633,-2.656 -3.084,-2.879 -3.884,-1.914 m -4.153,4.11 c -0.732,0.732 -0.603,0.989 1.924,3.832 2.369,2.666 2.392,2.68 3.142,1.93 0.75,-0.75 0.738,-0.776 -1.693,-3.491 -2.633,-2.94 -2.675,-2.969 -3.373,-2.271 m 31.197,0.613 c 0,0.38 8.299,15.077 8.811,15.602 0.144,0.148 2.235,-2.252 4.646,-5.334 2.411,-3.081 4.322,-5.648 4.247,-5.704 -0.075,-0.056 -3.872,-1.116 -8.437,-2.355 -4.566,-1.24 -8.519,-2.331 -8.784,-2.425 -0.266,-0.094 -0.483,0.003 -0.483,0.216 m -36.034,3.731 c -0.669,0.506 3.354,6.389 4.369,6.389 1.731,0 1.43,-1.446 -0.845,-4.059 -2.703,-3.104 -2.595,-3.033 -3.524,-2.33 m -4.722,3.856 c -0.886,0.656 -0.731,0.99 2.078,4.502 1.67,2.086 3.157,2.545 3.157,0.974 0,-0.287 -4.21,-6.032 -4.42,-6.032 -0.036,0 -0.403,0.25 -0.815,0.556 m -5.112,3.769 c -0.692,0.692 -0.631,0.851 1.546,3.982 2.203,3.168 2.234,3.191 3.11,2.215 0.559,-0.624 0.441,-0.908 -1.513,-3.668 -2.223,-3.138 -2.396,-3.277 -3.143,-2.529 m -5.243,3.585 c -0.693,0.524 -0.641,0.681 1.165,3.529 2.058,3.244 2.351,3.486 3.344,2.756 0.56,-0.412 -2.966,-6.946 -3.694,-6.846 -0.049,0.006 -0.416,0.259 -0.815,0.561 m -5.408,3.4 c -0.734,0.536 2.461,6.805 3.48,6.828 1.49,0.032 1.369,-1.16 -0.431,-4.231 -1.939,-3.306 -2.004,-3.361 -3.049,-2.597 m -5.472,3.138 c -0.412,0.301 -0.632,0.664 -0.489,0.807 0.421,0.421 1.862,-0.2 1.862,-0.802 0,-0.7 -0.421,-0.702 -1.373,-0.005 m -12.849,2.108 c -0.611,0.387 0.871,4.298 1.625,4.288 1.283,-0.018 1.417,-0.623 0.584,-2.628 -0.826,-1.988 -1.222,-2.286 -2.209,-1.66 m 7.005,0.681 c -0.254,0.103 -0.369,0.427 -0.257,0.719 0.159,0.414 0.407,0.439 1.124,0.112 1.392,-0.635 0.574,-1.417 -0.867,-0.831 m -11.304,5.142 c -0.313,0.198 -0.456,0.471 -0.319,0.609 0.338,0.337 1.852,-0.169 1.852,-0.62 0,-0.459 -0.798,-0.454 -1.533,0.011 m -5.731,1.988 c -0.492,0.185 -0.795,0.496 -0.675,0.69 0.241,0.391 1.662,0.126 1.967,-0.366 0.32,-0.518 -0.341,-0.684 -1.292,-0.324 m -6.636,2.274 c 0,0.213 0.338,0.386 0.75,0.386 0.412,0 0.857,-0.173 0.988,-0.386 0.135,-0.219 -0.189,-0.386 -0.749,-0.386 -0.544,0 -0.989,0.174 -0.989,0.386 m -68.144,1.917 c -0.299,1.77 -0.062,2.33 0.986,2.33 0.475,0 0.749,-0.264 0.749,-0.724 0,-0.398 0.109,-1.266 0.242,-1.93 0.219,-1.098 0.152,-1.207 -0.739,-1.207 -0.84,0 -1.016,0.218 -1.238,1.531 m 62.353,-0.372 c -0.451,0.291 -0.345,0.375 0.483,0.38 0.584,0.003 1.061,-0.168 1.061,-0.38 0,-0.489 -0.789,-0.489 -1.544,0 m -6.564,1.544 c 0,0.212 0.337,0.386 0.75,0.386 0.412,0 0.856,-0.174 0.988,-0.386 0.135,-0.219 -0.189,-0.386 -0.75,-0.386 -0.543,0 -0.988,0.174 -0.988,0.386 m -6.177,1.158 c 0,0.489 0.789,0.489 1.544,0 0.451,-0.291 0.345,-0.375 -0.483,-0.38 -0.584,-0.003 -1.061,0.168 -1.061,0.38 m -5.985,0.773 c -0.131,0.212 0.109,0.386 0.534,0.386 0.424,0 0.879,-0.174 1.01,-0.386 0.132,-0.213 -0.108,-0.387 -0.533,-0.387 -0.425,0 -0.88,0.174 -1.011,0.387"
     stroke="none"
     fill="#26aae3"
     fill-rule="evenodd" />
  <path
     transform="matrix(0.84904318,0,0,0.84904318,-442.09692,296.20428)"
     style="fill:#00ffff;filter:url(#filter1335-1)"
     id="path1-6"
     d="M 204.633,0.405 C 62.753,12.296 -28.721,149.044 17.268,280.502 c 25.951,74.179 92.684,127.599 174.624,139.786 34.399,5.116 74.125,0.624 108.212,-12.237 8.946,-3.375 27.266,-11.677 27.848,-12.619 0.141,-0.229 -7.233,-13.091 -16.387,-28.582 l -16.644,-28.166 -4.121,2.058 c -5.53,2.761 -8.75,4.228 -11.07,5.044 -1.062,0.374 -2.118,0.819 -2.347,0.991 -0.229,0.171 -1.619,0.68 -3.089,1.132 -1.47,0.451 -2.853,0.967 -3.074,1.146 -0.221,0.18 -0.93,0.419 -1.575,0.533 -0.646,0.114 -1.942,0.486 -2.88,0.827 -15.818,5.749 -43.567,8.171 -63.676,5.556 -6.748,-0.877 -8.028,-1.089 -12.697,-2.1 -14.937,-3.233 -40.623,-13.118 -45.13,-17.366 -0.057,-0.054 5.484,-9.55 12.314,-21.101 6.829,-11.551 12.61,-21.441 12.845,-21.976 0.236,-0.536 1.194,-2.278 2.13,-3.873 l 1.701,-2.898 6.214,3.119 c 54.703,27.459 121.026,-5.149 131.161,-64.486 0.857,-5.018 1.449,-19.067 0.863,-20.482 -0.313,-0.753 -1.724,-0.304 -30.637,9.739 -16.67,5.79 -36.824,12.776 -44.787,15.525 -7.964,2.748 -27.51,9.516 -43.437,15.039 -81.881,28.397 -102.702,35.584 -103.081,35.584 -1.025,0 -7.385,-13.68 -10.412,-22.394 -5.852,-16.847 -7.739,-28.398 -7.725,-47.297 0.015,-20.362 2.183,-32.146 9.661,-52.51 3.546,-9.653 14.618,-28.875 20.657,-35.858 0.758,-0.877 1.755,-2.139 2.216,-2.806 0.461,-0.666 1.405,-1.814 2.097,-2.55 0.693,-0.736 2.475,-2.676 3.962,-4.31 22.221,-24.43 53.157,-40.755 87.452,-46.15 18.332,-2.884 42.401,-2.059 56.694,1.944 3.339,0.935 3.115,1.079 4.156,-2.671 7.292,-26.267 16.398,-59.629 16.302,-59.726 -0.847,-0.842 -20.2,-4.206 -31.4,-5.457 -6.316,-0.706 -33.101,-1.047 -39.575,-0.505 m 104.155,55.099 c -2.481,0.34 -4.377,3.87 -3.377,6.286 1.195,2.884 5.142,4.107 7.436,2.303 1.3,-1.023 0.816,-1.211 6.579,2.554 73.34,47.923 100.083,140.338 62.95,217.536 l -2.885,5.998 -2.323,-0.013 c -5.164,-0.03 -7.069,6.653 -2.513,8.815 4.521,2.145 9.494,-3.013 6.486,-6.727 -0.707,-0.873 -0.688,-0.932 2.077,-6.703 19.267,-40.208 22.176,-86.339 8.109,-128.603 -12.324,-37.027 -36.451,-68.224 -70.091,-90.63 -6.02,-4.01 -6.364,-4.306 -6.248,-5.37 0.382,-3.51 -2.413,-5.966 -6.2,-5.446 m -94.309,67.299 c -47.389,3.875 -83.205,42.041 -83.205,88.664 0,5.251 0.108,6.721 0.483,6.578 0.265,-0.101 9.778,-3.408 21.139,-7.349 11.361,-3.941 30.907,-10.723 43.436,-15.071 29.964,-10.399 92.559,-31.997 96.687,-33.362 4.126,-1.363 4.117,-1.248 0.48,-5.758 -18.908,-23.449 -48.751,-36.177 -79.02,-33.702"
     stroke="none"
     fill="#040404"
     fill-rule="evenodd" />
</svg>
