<?xml version="1.0" encoding="UTF-8" standalone="no"?>
<svg
   xmlns:dc="http://purl.org/dc/elements/1.1/"
   xmlns:cc="http://creativecommons.org/ns#"
   xmlns:rdf="http://www.w3.org/1999/02/22-rdf-syntax-ns#"
   xmlns:svg="http://www.w3.org/2000/svg"
   xmlns="http://www.w3.org/2000/svg"
   xmlns:sodipodi="http://sodipodi.sourceforge.net/DTD/sodipodi-0.dtd"
   xmlns:inkscape="http://www.inkscape.org/namespaces/inkscape"
   height="67"
   width="67"
   id="Layer_1"
   version="1.1"
   viewBox="0 0 67 67"
   xml:space="preserve"
   sodipodi:docname="insta1.svg"
   inkscape:version="1.0 (4035a4fb49, 2020-05-01)"><metadata
     id="metadata50"><rdf:RDF><cc:Work
         rdf:about=""><dc:format>image/svg+xml</dc:format><dc:type
           rdf:resource="http://purl.org/dc/dcmitype/StillImage" /><dc:title></dc:title></cc:Work></rdf:RDF></metadata><defs
     id="defs48" /><sodipodi:namedview
     inkscape:document-rotation="0"
     pagecolor="#ffffff"
     bordercolor="#666666"
     borderopacity="1"
     objecttolerance="10"
     gridtolerance="10"
     guidetolerance="10"
     inkscape:pageopacity="0"
     inkscape:pageshadow="2"
     inkscape:window-width="1920"
     inkscape:window-height="1051"
     id="namedview46"
     showgrid="false"
     inkscape:zoom="10.555982"
     inkscape:cx="43.682831"
     inkscape:cy="34.586979"
     inkscape:window-x="-9"
     inkscape:window-y="-9"
     inkscape:window-maximized="1"
     inkscape:current-layer="Layer_1" /><style
     type="text/css"
     id="style2">
	.st0{fill:url(#SVGID_1_);}
	.st1{fill:#FFFFFF;}
</style><linearGradient
     gradientUnits="userSpaceOnUse"
     id="SVGID_1_"
     x1="146.4465"
     x2="853.55353"
     y1="853.55353"
     y2="146.4465"><stop
       offset="0"
       style="stop-color:#FFD521"
       id="stop4" /><stop
       offset="5.510481e-02"
       style="stop-color:#FFD020"
       id="stop6" /><stop
       offset="0.1241"
       style="stop-color:#FEC01E"
       id="stop8" /><stop
       offset="0.2004"
       style="stop-color:#FCA71B"
       id="stop10" /><stop
       offset="0.2821"
       style="stop-color:#FA8316"
       id="stop12" /><stop
       offset="0.3681"
       style="stop-color:#F85510"
       id="stop14" /><stop
       offset="0.4563"
       style="stop-color:#F51E09"
       id="stop16" /><stop
       offset="0.5"
       style="stop-color:#F30005"
       id="stop18" /><stop
       offset="0.5035"
       style="stop-color:#F20007"
       id="stop20" /><stop
       offset="0.5966"
       style="stop-color:#E1003B"
       id="stop22" /><stop
       offset="0.6879"
       style="stop-color:#D30067"
       id="stop24" /><stop
       offset="0.7757"
       style="stop-color:#C70088"
       id="stop26" /><stop
       offset="0.8589"
       style="stop-color:#BF00A0"
       id="stop28" /><stop
       offset="0.9357"
       style="stop-color:#BB00AF"
       id="stop30" /><stop
       offset="1"
       style="stop-color:#B900B4"
       id="stop32" /></linearGradient><path
     id="path35"
     style="fill:#ffffff;stroke-width:0.0665036"
     d="m 33.441298,0.37893206 c -18.361662,0 -33.25183197,14.89016994 -33.25183197,33.25183194 0,18.361663 14.89016997,33.251833 33.25183197,33.251833 18.361663,0 33.251833,-14.89017 33.251833,-33.251833 0,-18.361662 -14.89017,-33.25183194 -33.251833,-33.25183194 z m 0,10.55407994 c 6.164891,0 6.936307,0.0266 9.35039,0.133007 2.420733,0.113056 4.07005,0.498804 5.513181,1.057434 1.496331,0.585232 2.759901,1.3567 4.02347,2.62027 1.26357,1.256919 2.041689,2.527192 2.620271,4.010224 0.565281,1.449779 0.944378,3.098966 1.057434,5.513049 0.113057,2.420733 0.139633,3.192254 0.139633,9.357144 0,6.164889 -0.02658,6.936281 -0.139633,9.357014 -0.113056,2.420733 -0.498803,4.07005 -1.057434,5.513181 -0.585232,1.496331 -1.356701,2.759901 -2.620271,4.02347 -1.256919,1.26357 -2.527191,2.041689 -4.010222,2.620271 -1.449781,0.565281 -3.098968,0.944378 -5.51305,1.057434 -2.420734,0.113057 -3.192254,0.139633 -9.357144,0.139633 -6.16489,0 -6.93628,-0.02658 -9.357014,-0.139633 -2.420733,-0.113056 -4.070051,-0.498803 -5.513179,-1.057434 -1.496334,-0.585232 -2.759903,-1.356701 -4.023473,-2.620271 -1.26357,-1.256919 -2.041687,-2.527191 -2.62027,-4.010222 -0.565281,-1.449781 -0.944378,-3.098968 -1.057434,-5.51305 -0.113055,-2.420734 -0.139631,-3.192254 -0.139631,-9.357144 0,-6.16489 0.02658,-6.93628 0.139631,-9.357014 0.113056,-2.420733 0.498804,-4.070051 1.057434,-5.513179 0.585232,-1.496334 1.3567,-2.759903 2.62027,-4.023473 1.256919,-1.26357 2.527166,-2.041714 4.016848,-2.613645 1.449779,-0.565282 3.099097,-0.944248 5.51318,-1.057306 2.420733,-0.113055 3.192124,-0.13976 9.357013,-0.13976 z m 0,4.089976 c -6.058483,0 -6.776749,0.01995 -9.170881,0.133006 -2.214571,0.106406 -3.418314,0.472229 -4.216358,0.784796 -1.057409,0.412322 -1.815498,0.904449 -2.606892,1.695843 -0.791394,0.791394 -1.283521,1.549483 -1.695843,2.606892 -0.312567,0.798044 -0.685041,2.001787 -0.784796,4.216358 -0.113056,2.394132 -0.133006,3.112398 -0.133006,9.170881 0,6.058485 0.0266,6.77675 0.133006,9.170883 0.106406,2.214571 0.472229,3.418313 0.784796,4.216357 0.412322,1.057408 0.904449,1.815498 1.695843,2.606891 0.791394,0.791394 1.549483,1.283522 2.606892,1.695845 0.798044,0.312567 2.001787,0.685039 4.216358,0.784795 2.394132,0.113056 3.112398,0.133007 9.170881,0.133007 6.058485,0 6.77675,-0.0266 9.170883,-0.133007 2.214571,-0.106406 3.418313,-0.472228 4.216357,-0.784795 1.057408,-0.412323 1.815498,-0.904451 2.606891,-1.695845 0.791394,-0.791393 1.283522,-1.549483 1.695845,-2.606891 0.312567,-0.798044 0.685039,-2.001786 0.784795,-4.216357 0.113056,-2.394133 0.133007,-3.112398 0.133007,-9.170883 0,-6.058483 -0.0266,-6.776749 -0.133007,-9.170881 -0.106406,-2.214571 -0.472228,-3.418314 -0.784795,-4.216358 -0.412323,-1.057409 -0.904451,-1.815498 -1.695845,-2.606892 -0.791393,-0.791394 -1.549483,-1.283521 -2.606891,-1.695843 -0.798044,-0.312567 -2.001786,-0.685041 -4.216357,-0.784796 -2.394133,-0.113056 -3.112398,-0.133006 -9.170883,-0.133006 z m 12.095095,3.764211 a 2.7266503,2.7266503 0 0 1 0.02182,0 2.7266503,2.7266503 0 0 1 2.72665,2.72665 2.7266503,2.7266503 0 0 1 -2.72665,2.72665 2.7266503,2.7266503 0 0 1 -2.72665,-2.72665 2.7266503,2.7266503 0 0 1 2.704827,-2.72665 z m -12.095095,3.185422 c 6.437556,0 11.658145,5.220589 11.658145,11.658143 0,6.437556 -5.220589,11.658145 -11.658145,11.658145 -6.437554,0 -11.658143,-5.220589 -11.658143,-11.658145 0,-6.437554 5.220589,-11.658143 11.658143,-11.658143 z m 0,4.089974 c -4.17643,0 -7.568169,3.385089 -7.568169,7.568169 0,4.183081 3.391739,7.568169 7.568169,7.568169 4.176431,0 7.568169,-3.385088 7.568169,-7.568169 0,-4.18308 -3.391738,-7.568169 -7.568169,-7.568169 z" /></svg>
