<?xml version="1.0" encoding="UTF-8" standalone="no"?>
<svg
   xmlns:dc="http://purl.org/dc/elements/1.1/"
   xmlns:cc="http://creativecommons.org/ns#"
   xmlns:rdf="http://www.w3.org/1999/02/22-rdf-syntax-ns#"
   xmlns:svg="http://www.w3.org/2000/svg"
   xmlns="http://www.w3.org/2000/svg"
   xmlns:sodipodi="http://sodipodi.sourceforge.net/DTD/sodipodi-0.dtd"
   xmlns:inkscape="http://www.inkscape.org/namespaces/inkscape"
   inkscape:version="1.0 (4035a4fb49, 2020-05-01)"
   sodipodi:docname="call.svg"
   id="svg15"
   xml:space="preserve"
   viewBox="0 0 350 350"
   height="350"
   width="350"
   version="1.1"><metadata
   id="metadata19"><rdf:RDF><cc:Work
       rdf:about=""><dc:format>image/svg+xml</dc:format><dc:type
         rdf:resource="http://purl.org/dc/dcmitype/StillImage" /><dc:title></dc:title></cc:Work></rdf:RDF></metadata><sodipodi:namedview
   inkscape:current-layer="svg15"
   inkscape:window-maximized="1"
   inkscape:window-y="-9"
   inkscape:window-x="-9"
   inkscape:cy="172.41782"
   inkscape:cx="134.38182"
   inkscape:zoom="1.7616626"
   showgrid="false"
   id="namedview17"
   inkscape:window-height="1001"
   inkscape:window-width="1920"
   inkscape:pageshadow="2"
   inkscape:pageopacity="0"
   guidetolerance="10"
   gridtolerance="10"
   objecttolerance="10"
   borderopacity="1"
   bordercolor="#666666"
   pagecolor="#ffffff" />
<desc
   id="desc2">Created with Fabric.js 1.7.22</desc>
<defs
   id="defs4">
</defs>
<g
   transform="matrix(3.7386278,0,0,3.7386278,5.4349544,6.5702396)"
   style="opacity:1;fill:#ffffff;fill-rule:nonzero;stroke:none;stroke-width:1;stroke-linecap:butt;stroke-linejoin:miter;stroke-miterlimit:10;stroke-dasharray:none"
   id="icon">
	<path
   id="path6"
   stroke-linecap="round"
   style="opacity:1;fill:#ffffff;fill-rule:nonzero;stroke:none;stroke-width:1;stroke-linecap:butt;stroke-linejoin:miter;stroke-miterlimit:10;stroke-dasharray:none"
   d="m 16.503,3 c 0.071,0 0.142,10e-4 0.215,0.003 0.131,0.003 0.261,0.011 0.388,0.019 0.171,0.011 0.342,0.024 0.513,0.044 0.137,0.016 0.273,0.038 0.409,0.059 0.162,0.026 0.323,0.051 0.487,0.086 0.129,0.027 0.255,0.061 0.425,0.104 l 0.056,0.015 c 0.133,0.034 0.266,0.067 0.398,0.108 0.123,0.038 0.244,0.084 0.366,0.128 l 0.076,0.028 0.124,0.045 c 0.098,0.035 0.197,0.07 0.294,0.11 0.122,0.051 0.242,0.11 0.362,0.168 l 0.094,0.045 0.165,0.078 c 0.072,0.034 0.144,0.066 0.215,0.104 0.125,0.067 0.246,0.143 0.368,0.217 l 0.099,0.061 0.192,0.115 c 0.047,0.028 0.096,0.054 0.143,0.086 0.153,0.102 0.3,0.217 0.447,0.33 l 0.054,0.041 c 0.067,0.051 0.135,0.101 0.203,0.15 l 0.059,0.042 c 0.257,0.21 0.499,0.429 0.72,0.649 l 8.159,8.159 c 0.221,0.221 0.439,0.463 0.641,0.709 l 0.053,0.072 c 0.049,0.068 0.098,0.135 0.149,0.202 l 0.046,0.061 c 0.111,0.145 0.223,0.288 0.324,0.44 0.032,0.048 0.059,0.098 0.088,0.147 l 0.112,0.188 0.063,0.103 c 0.074,0.121 0.149,0.24 0.215,0.365 0.038,0.071 0.071,0.144 0.104,0.216 l 0.077,0.163 0.046,0.096 c 0.057,0.119 0.116,0.238 0.167,0.36 0.04,0.095 0.073,0.192 0.108,0.289 l 0.046,0.127 0.028,0.076 c 0.045,0.122 0.09,0.244 0.129,0.37 0.04,0.128 0.072,0.258 0.105,0.388 l 0.024,0.095 c 0.034,0.132 0.069,0.264 0.098,0.399 0.034,0.159 0.059,0.319 0.084,0.48 0.022,0.138 0.044,0.275 0.06,0.415 0.02,0.17 0.032,0.34 0.043,0.509 0.008,0.13 0.016,0.259 0.019,0.389 0.004,0.179 0.003,0.358 -0.002,0.536 -0.004,0.121 -0.009,0.242 -0.017,0.364 -0.012,0.187 -0.03,0.373 -0.052,0.555 -0.014,0.111 -0.03,0.222 -0.048,0.334 -0.031,0.194 -0.065,0.386 -0.107,0.577 -0.02,0.09 -0.043,0.178 -0.073,0.297 -0.05,0.2 -0.104,0.398 -0.166,0.593 -0.016,0.051 -0.035,0.101 -0.053,0.152 l -0.038,0.106 c -0.072,0.204 -0.146,0.407 -0.231,0.605 l -0.037,0.078 -0.064,0.137 c -0.096,0.209 -0.194,0.416 -0.316,0.637 l -0.087,0.148 c -0.145,0.253 -0.259,0.439 -0.365,0.597 -0.034,0.045 -0.067,0.09 -0.099,0.135 -0.186,0.266 -0.343,0.474 -0.494,0.654 -0.229,0.274 -0.408,0.473 -0.58,0.645 l -5.52,5.52 c -1.876,1.876 -1.876,4.927 0,6.803 l 23.86,23.86 c 0.909,0.909 2.117,1.409 3.402,1.409 1.285,0 2.493,-0.5 3.402,-1.409 l 5.52,-5.52 c 0.172,-0.172 0.371,-0.351 0.645,-0.581 0.181,-0.151 0.389,-0.309 0.654,-0.495 0.043,-0.03 0.085,-0.061 0.133,-0.097 0.16,-0.108 0.348,-0.223 0.604,-0.37 l 0.158,-0.095 c 0.204,-0.112 0.413,-0.21 0.624,-0.307 l 0.135,-0.063 0.074,-0.035 c 0.201,-0.086 0.405,-0.161 0.613,-0.234 l 0.106,-0.038 c 0.048,-0.017 0.096,-0.035 0.145,-0.051 0.198,-0.063 0.397,-0.117 0.631,-0.176 0.087,-0.022 0.173,-0.044 0.261,-0.064 0.193,-0.042 0.386,-0.077 0.583,-0.108 0.109,-0.017 0.218,-0.034 0.326,-0.047 0.187,-0.023 0.373,-0.04 0.565,-0.053 0.119,-0.008 0.239,-0.013 0.357,-0.017 0.108,-0.003 0.216,-0.005 0.325,-0.005 0.071,0 0.142,10e-4 0.214,0.003 0.13,0.003 0.26,0.011 0.388,0.019 0.171,0.011 0.341,0.024 0.513,0.043 0.137,0.016 0.273,0.038 0.409,0.059 0.162,0.026 0.323,0.051 0.486,0.086 0.129,0.027 0.256,0.061 0.425,0.104 l 0.056,0.015 c 0.133,0.034 0.266,0.067 0.398,0.108 0.124,0.038 0.245,0.084 0.367,0.128 l 0.075,0.027 0.124,0.045 c 0.098,0.035 0.197,0.07 0.294,0.11 0.122,0.051 0.241,0.11 0.361,0.167 l 0.094,0.045 0.165,0.078 c 0.072,0.034 0.144,0.066 0.215,0.104 0.125,0.067 0.246,0.143 0.368,0.217 l 0.099,0.061 0.192,0.115 c 0.047,0.028 0.096,0.054 0.143,0.086 0.153,0.102 0.3,0.217 0.448,0.33 l 0.053,0.041 c 0.067,0.051 0.135,0.101 0.204,0.15 l 0.059,0.042 c 0.257,0.21 0.499,0.429 0.72,0.649 l 8.159,8.159 c 0.221,0.221 0.439,0.463 0.641,0.709 l 0.053,0.072 c 0.049,0.068 0.098,0.135 0.149,0.202 l 0.046,0.061 c 0.111,0.145 0.223,0.288 0.324,0.44 0.032,0.048 0.059,0.097 0.088,0.146 l 0.112,0.188 0.063,0.103 c 0.074,0.121 0.149,0.24 0.216,0.366 0.038,0.071 0.071,0.144 0.104,0.216 l 0.077,0.163 0.046,0.096 c 0.057,0.119 0.116,0.237 0.166,0.359 0.04,0.095 0.073,0.192 0.108,0.289 l 0.046,0.128 0.028,0.076 c 0.045,0.122 0.09,0.244 0.129,0.37 0.04,0.128 0.072,0.257 0.105,0.386 l 0.025,0.095 c 0.034,0.133 0.069,0.265 0.098,0.4 0.034,0.159 0.059,0.319 0.084,0.48 0.022,0.138 0.044,0.275 0.06,0.415 0.02,0.17 0.032,0.34 0.043,0.509 0.008,0.13 0.016,0.259 0.019,0.389 0.004,0.179 0.003,0.358 -0.002,0.536 -0.004,0.121 -0.009,0.242 -0.017,0.364 -0.012,0.187 -0.03,0.373 -0.052,0.555 -0.014,0.112 -0.031,0.222 -0.048,0.334 -0.031,0.194 -0.065,0.386 -0.107,0.578 -0.02,0.089 -0.043,0.178 -0.073,0.297 -0.05,0.199 -0.104,0.398 -0.166,0.593 -0.016,0.051 -0.035,0.102 -0.053,0.152 l -0.038,0.106 c -0.072,0.204 -0.146,0.407 -0.231,0.605 l -0.037,0.079 -0.064,0.137 c -0.096,0.209 -0.194,0.416 -0.316,0.637 L 85.705,78.4 c -0.145,0.252 -0.259,0.439 -0.365,0.597 -0.034,0.045 -0.067,0.09 -0.099,0.135 -0.186,0.266 -0.343,0.474 -0.494,0.653 -0.229,0.274 -0.408,0.473 -0.58,0.645 l -0.026,0.026 -0.026,0.027 C 80.119,84.687 74.086,87 67.127,87 54.146,87 39.217,79.161 25.074,64.911 10.703,50.648 2.864,35.6 3.002,22.54 3.074,15.726 5.386,9.812 9.512,5.885 L 9.539,5.859 9.565,5.833 C 9.737,5.661 9.936,5.482 10.21,5.252 10.391,5.101 10.599,4.943 10.865,4.757 10.908,4.727 10.95,4.696 10.998,4.66 11.158,4.552 11.346,4.437 11.602,4.291 L 11.76,4.196 c 0.204,-0.112 0.413,-0.21 0.624,-0.307 L 12.519,3.826 12.593,3.791 C 12.794,3.705 12.999,3.63 13.206,3.557 L 13.312,3.519 C 13.361,3.502 13.409,3.484 13.457,3.468 13.655,3.405 13.854,3.351 14.086,3.292 14.173,3.27 14.26,3.247 14.348,3.228 14.541,3.186 14.734,3.151 14.931,3.12 15.04,3.103 15.149,3.086 15.256,3.073 15.443,3.05 15.629,3.033 15.821,3.02 15.94,3.012 16.06,3.007 16.178,3.003 16.287,3.002 16.395,3 16.503,3 m 0,-3 C 16.365,0 16.228,0.002 16.09,0.006 15.933,0.011 15.777,0.018 15.621,0.028 15.377,0.044 15.133,0.067 14.89,0.097 14.747,0.115 14.605,0.136 14.462,0.158 14.208,0.198 13.956,0.244 13.704,0.299 13.576,0.327 13.449,0.36 13.322,0.392 13.06,0.459 12.8,0.53 12.541,0.613 12.43,0.649 12.32,0.69 12.21,0.728 11.941,0.823 11.674,0.922 11.41,1.035 11.317,1.075 11.226,1.12 11.134,1.163 10.859,1.289 10.586,1.42 10.319,1.566 10.247,1.606 10.177,1.65 10.106,1.692 9.825,1.853 9.546,2.02 9.275,2.205 9.231,2.235 9.189,2.269 9.145,2.3 8.852,2.505 8.564,2.719 8.286,2.951 v 0 C 7.998,3.192 7.714,3.441 7.444,3.711 -3.869,14.476 -4.88,39.408 22.96,67.04 39.457,83.662 54.994,90 67.127,90 c 8.188,0 14.824,-2.886 19.162,-7.444 0.27,-0.27 0.52,-0.554 0.76,-0.842 0,0 0,0 0,0 0.232,-0.277 0.444,-0.564 0.649,-0.855 0.032,-0.045 0.067,-0.088 0.098,-0.134 0.184,-0.27 0.35,-0.547 0.511,-0.827 0.042,-0.073 0.088,-0.144 0.128,-0.218 0.146,-0.266 0.276,-0.537 0.401,-0.811 0.043,-0.094 0.089,-0.186 0.13,-0.28 0.113,-0.262 0.211,-0.528 0.305,-0.796 0.039,-0.112 0.081,-0.223 0.117,-0.336 0.082,-0.257 0.153,-0.516 0.219,-0.777 0.033,-0.129 0.065,-0.257 0.094,-0.386 0.055,-0.25 0.1,-0.501 0.14,-0.754 0.023,-0.144 0.044,-0.287 0.062,-0.432 0.03,-0.242 0.052,-0.484 0.068,-0.727 0.01,-0.158 0.018,-0.315 0.022,-0.473 0.007,-0.233 0.008,-0.465 0.003,-0.698 -0.004,-0.169 -0.013,-0.338 -0.024,-0.507 -0.014,-0.222 -0.031,-0.444 -0.057,-0.665 -0.021,-0.18 -0.049,-0.359 -0.077,-0.539 -0.033,-0.21 -0.067,-0.419 -0.111,-0.627 -0.04,-0.189 -0.089,-0.376 -0.137,-0.564 -0.051,-0.197 -0.1,-0.393 -0.16,-0.587 -0.061,-0.196 -0.133,-0.389 -0.203,-0.583 -0.066,-0.182 -0.129,-0.365 -0.204,-0.545 -0.084,-0.202 -0.181,-0.398 -0.276,-0.596 -0.08,-0.167 -0.154,-0.335 -0.242,-0.498 -0.111,-0.209 -0.238,-0.41 -0.361,-0.614 -0.089,-0.146 -0.171,-0.296 -0.267,-0.439 -0.15,-0.225 -0.317,-0.441 -0.483,-0.658 -0.087,-0.114 -0.165,-0.232 -0.256,-0.343 -0.265,-0.324 -0.548,-0.639 -0.85,-0.941 L 78.129,56.345 C 77.827,56.043 77.512,55.761 77.188,55.495 77.077,55.404 76.96,55.327 76.847,55.24 76.629,55.074 76.413,54.906 76.187,54.756 76.044,54.661 75.896,54.58 75.75,54.491 75.546,54.367 75.344,54.24 75.135,54.129 74.972,54.042 74.804,53.967 74.638,53.888 74.44,53.793 74.242,53.696 74.04,53.612 c -0.18,-0.075 -0.364,-0.138 -0.547,-0.205 -0.193,-0.07 -0.384,-0.141 -0.58,-0.202 -0.196,-0.061 -0.394,-0.111 -0.592,-0.162 -0.186,-0.048 -0.372,-0.096 -0.559,-0.136 -0.21,-0.044 -0.42,-0.079 -0.631,-0.112 -0.178,-0.028 -0.356,-0.056 -0.535,-0.077 -0.222,-0.026 -0.444,-0.043 -0.667,-0.057 -0.169,-0.011 -0.337,-0.02 -0.506,-0.024 -0.096,-0.002 -0.192,-0.003 -0.287,-0.003 -0.138,0 -0.275,0.002 -0.413,0.006 -0.157,0.005 -0.313,0.012 -0.469,0.022 -0.244,0.016 -0.488,0.039 -0.731,0.069 -0.143,0.018 -0.285,0.039 -0.428,0.061 -0.254,0.04 -0.506,0.086 -0.758,0.141 -0.128,0.028 -0.255,0.061 -0.382,0.093 -0.262,0.066 -0.522,0.137 -0.781,0.22 -0.111,0.036 -0.221,0.077 -0.331,0.115 -0.269,0.095 -0.536,0.194 -0.8,0.307 -0.093,0.04 -0.184,0.085 -0.276,0.128 -0.275,0.126 -0.548,0.257 -0.815,0.403 -0.072,0.04 -0.142,0.084 -0.213,0.126 -0.282,0.162 -0.56,0.329 -0.831,0.514 -0.044,0.03 -0.086,0.065 -0.13,0.095 -0.293,0.205 -0.581,0.418 -0.859,0.651 v 0 c -0.288,0.241 -0.572,0.49 -0.842,0.76 l -5.52,5.52 c -0.354,0.354 -0.817,0.53 -1.28,0.53 -0.463,0 -0.927,-0.177 -1.28,-0.53 L 28.136,38.004 c -0.707,-0.707 -0.707,-1.854 0,-2.561 l 5.52,-5.52 c 0.27,-0.27 0.52,-0.554 0.761,-0.842 0,0 0,0 0,0 0.232,-0.277 0.444,-0.564 0.649,-0.855 0.032,-0.045 0.067,-0.088 0.098,-0.134 0.184,-0.27 0.35,-0.547 0.511,-0.827 0.042,-0.073 0.088,-0.144 0.128,-0.218 0.146,-0.266 0.276,-0.537 0.401,-0.811 0.043,-0.094 0.089,-0.186 0.13,-0.28 0.113,-0.262 0.211,-0.528 0.305,-0.796 0.039,-0.112 0.081,-0.223 0.117,-0.336 0.082,-0.257 0.153,-0.516 0.219,-0.777 0.033,-0.129 0.065,-0.257 0.094,-0.386 0.055,-0.25 0.1,-0.501 0.14,-0.754 0.023,-0.144 0.044,-0.287 0.062,-0.432 0.03,-0.242 0.052,-0.484 0.068,-0.727 0.011,-0.158 0.018,-0.315 0.022,-0.473 0.007,-0.233 0.008,-0.465 0.003,-0.698 -0.004,-0.169 -0.013,-0.338 -0.024,-0.507 -0.014,-0.222 -0.031,-0.444 -0.057,-0.665 -0.021,-0.18 -0.049,-0.359 -0.077,-0.539 -0.033,-0.21 -0.068,-0.419 -0.111,-0.627 -0.04,-0.189 -0.089,-0.376 -0.137,-0.564 -0.051,-0.197 -0.1,-0.393 -0.161,-0.587 C 36.736,16.892 36.664,16.699 36.594,16.505 36.528,16.323 36.465,16.14 36.39,15.96 36.306,15.758 36.209,15.562 36.114,15.364 36.034,15.197 35.96,15.029 35.872,14.866 35.761,14.657 35.634,14.456 35.511,14.252 35.422,14.106 35.34,13.956 35.244,13.813 35.094,13.588 34.927,13.372 34.761,13.155 34.674,13.041 34.596,12.923 34.505,12.812 34.24,12.488 33.957,12.173 33.655,11.871 L 25.496,3.712 C 25.194,3.41 24.879,3.128 24.555,2.862 24.444,2.771 24.327,2.694 24.213,2.607 23.995,2.441 23.779,2.273 23.553,2.123 23.41,2.028 23.262,1.947 23.116,1.858 22.912,1.734 22.71,1.607 22.501,1.496 22.338,1.409 22.17,1.334 22.004,1.255 21.806,1.16 21.608,1.063 21.406,0.979 21.226,0.904 21.042,0.841 20.859,0.774 20.666,0.704 20.475,0.633 20.279,0.572 20.083,0.511 19.885,0.461 19.687,0.41 19.501,0.362 19.315,0.314 19.128,0.274 18.918,0.23 18.708,0.195 18.497,0.162 18.319,0.134 18.141,0.106 17.962,0.085 17.74,0.059 17.518,0.042 17.295,0.028 17.126,0.017 16.958,0.008 16.789,0.004 16.695,0.001 16.599,0 16.503,0 Z" />
	<path
   id="path8"
   stroke-linecap="round"
   style="opacity:1;fill:#ffffff;fill-rule:nonzero;stroke:none;stroke-width:1;stroke-linecap:butt;stroke-linejoin:miter;stroke-miterlimit:10;stroke-dasharray:none"
   d="M 90,46.5 H 87 C 87,22.514 67.486,3 43.5,3 V 0 C 69.141,0 90,20.86 90,46.5 Z" />
	<path
   id="path10"
   stroke-linecap="round"
   style="opacity:1;fill:#ffffff;fill-rule:nonzero;stroke:none;stroke-width:1;stroke-linecap:butt;stroke-linejoin:miter;stroke-miterlimit:10;stroke-dasharray:none"
   d="m 77.5,46.5 h -3 c 0,-17.093 -13.906,-31 -31,-31 v -3 c 18.748,0 34,15.252 34,34 z" />
	<path
   id="path12"
   stroke-linecap="round"
   style="opacity:1;fill:#ffffff;fill-rule:nonzero;stroke:none;stroke-width:1;stroke-linecap:butt;stroke-linejoin:miter;stroke-miterlimit:10;stroke-dasharray:none"
   d="M 65,46.5 H 62 C 62,36.299 53.701,28 43.5,28 V 25 C 55.355,25 65,34.645 65,46.5 Z" />
</g>
</svg>
