<?xml version="1.0" encoding="UTF-8" standalone="no"?>
<svg
   xmlns:dc="http://purl.org/dc/elements/1.1/"
   xmlns:cc="http://creativecommons.org/ns#"
   xmlns:rdf="http://www.w3.org/1999/02/22-rdf-syntax-ns#"
   xmlns:svg="http://www.w3.org/2000/svg"
   xmlns="http://www.w3.org/2000/svg"
   xmlns:sodipodi="http://sodipodi.sourceforge.net/DTD/sodipodi-0.dtd"
   xmlns:inkscape="http://www.inkscape.org/namespaces/inkscape"
   id="svg"
   version="1.1"
   width="400"
   height="400"
   viewBox="0, 0, 400,400"
   sodipodi:docname="ecell1.svg"
   inkscape:version="1.0 (4035a4fb49, 2020-05-01)">
  <metadata
     id="metadata11">
    <rdf:RDF>
      <cc:Work
         rdf:about="">
        <dc:format>image/svg+xml</dc:format>
        <dc:type
           rdf:resource="http://purl.org/dc/dcmitype/StillImage" />
      </cc:Work>
    </rdf:RDF>
  </metadata>
  <defs
     id="defs9" />
  <sodipodi:namedview
     inkscape:document-rotation="0"
     pagecolor="#ffffff"
     bordercolor="#666666"
     borderopacity="1"
     objecttolerance="10"
     gridtolerance="10"
     guidetolerance="10"
     inkscape:pageopacity="0"
     inkscape:pageshadow="2"
     inkscape:window-width="1920"
     inkscape:window-height="1001"
     id="namedview7"
     showgrid="false"
     inkscape:zoom="1.4990664"
     inkscape:cx="221.8694"
     inkscape:cy="179.15624"
     inkscape:window-x="-9"
     inkscape:window-y="-9"
     inkscape:window-maximized="1"
     inkscape:current-layer="svg" />
  <circle
     r="196.45561"
     cy="198.46431"
     cx="200.4581"
     id="path840"
     style="fill:#000000;stroke-width:1.82007" />
  <path
     fill-rule="evenodd"
     fill="#040505"
     stroke="none"
     d="M 200.18412,37.622748 C 153.05566,42.325475 114.68284,62.557435 86.019023,97.813835 55.116836,135.82352 44.778255,184.57652 57.122494,234.08613 c 12.835535,51.48267 58.575546,96.95736 111.807536,111.16111 6.98271,1.86288 9.36611,2.41263 14.02837,3.23671 32.71673,5.77751 65.55712,2.21476 94.77295,-10.28125 4.79604,-2.05175 13.30884,-6.21484 14.33977,-7.01418 0.11355,-0.0877 -9.7416,-16.93791 -15.15598,-25.91391 -0.40248,-0.66667 -2.50145,-4.20805 -4.66563,-7.86973 -2.16305,-3.66055 -4.11137,-6.93323 -4.3306,-7.27051 -0.31816,-0.49242 -1.23442,-0.21248 -4.61054,1.40644 -34.10405,16.35218 -76.0205,14.95811 -106.72482,-3.55038 -0.78698,-0.47556 -0.6071,-0.91626 2.67233,-6.52063 3.31653,-5.66846 18.20382,-30.56268 18.48039,-30.9022 0.0697,-0.0866 2.41825,0.96123 5.21651,2.32832 12.82654,6.26431 29.56658,8.596 42.86418,5.97088 32.30189,-6.37561 56.55078,-35.30475 55.01956,-65.63695 -0.2226,-4.4093 0.59135,-4.34971 -9.86977,-0.72177 -5.04563,1.74933 -11.19751,3.86517 -13.67085,4.70385 -2.47335,0.83757 -7.43128,2.55767 -11.01763,3.82245 -3.58635,1.26477 -7.63364,2.67008 -8.99398,3.12203 -1.36034,0.45195 -7.53246,2.58465 -13.71582,4.73758 -6.18336,2.15406 -12.05194,4.18557 -13.04127,4.51498 -0.98934,0.3294 -5.03663,1.73359 -8.99398,3.11979 -3.95736,1.38732 -8.91529,3.11079 -11.01763,3.83031 -2.10234,0.72064 -7.97092,2.75216 -13.04127,4.51498 -12.76359,4.43853 -23.2708,8.06422 -25.408,8.768 -0.98934,0.32604 -4.73308,1.62904 -8.31943,2.89607 -3.58635,1.26815 -8.54428,2.99162 -11.01763,3.83031 -2.47334,0.83981 -7.37843,2.5363 -10.89958,3.7696 l -6.40371,2.24287 -0.83532,-1.20069 c -8.43298,-12.12389 -14.18351,-38.50211 -12.75234,-58.4991 4.74657,-66.35535 70.74665,-114.025684 136.46005,-98.563905 2.14731,0.50591 1.93258,0.90501 4.44752,-8.27784 1.15123,-4.204683 3.24346,-11.793354 4.64877,-16.863711 1.40643,-5.070355 2.82636,-10.230652 3.15801,-11.467324 1.89098,-7.072642 2.4666,-9.36948 2.36204,-9.439183 -0.85667,-0.569994 -11.23798,-2.543048 -19.228,-3.653805 -4.9287,-0.685791 -28.89317,-1.252412 -33.50258,-0.792594 m 77.25942,41.097997 c -1.82016,0.73301 -2.58352,2.94215 -1.59981,4.62852 1.19283,2.04163 2.82636,2.50707 4.94669,1.41093 4.05966,-2.10009 0.92301,-7.75955 -3.34688,-6.03945 m -76.31168,50.844085 c -27.97578,5.31095 -49.22293,26.10503 -54.52151,53.35904 -0.73976,3.80221 -1.15798,15.46178 -0.57674,16.04751 0.14503,0.14615 4.69823,-1.26927 10.11823,-3.14564 5.42112,-1.87525 10.40041,-3.57961 11.06709,-3.78534 0.66668,-0.20574 2.89269,-0.97922 4.94669,-1.7201 2.054,-0.73976 6.97258,-2.46435 10.92993,-3.83032 16.21615,-5.60212 29.88925,-10.34195 33.27773,-11.5359 4.34635,-1.53347 14.13629,-4.92083 29.23044,-10.11486 14.97386,-5.15242 22.7098,-8.01476 22.7098,-8.40375 0,-0.17538 -1.23554,-1.855 -2.74653,-3.7325 -14.44771,-17.95985 -41.1677,-27.55531 -64.43513,-23.13814 m 143.28536,47.18467 c 0,0.86567 0.0922,1.21981 0.20573,0.78698 0.11243,-0.43284 0.11243,-1.14111 0,-1.57395 -0.11355,-0.43284 -0.20573,-0.0787 -0.20573,0.78697 m 0.4497,4.94669 c 0,0.86567 0.0922,1.21981 0.20573,0.78698 0.11243,-0.43284 0.11243,-1.14111 0,-1.57395 -0.11355,-0.43284 -0.20573,-0.0787 -0.20573,0.78697 m 0.96123,12.59158 c 0,2.59701 0.0742,3.65942 0.16526,2.36092 0.0911,-1.29851 0.0911,-3.42334 0,-4.72184 -0.0911,-1.29851 -0.16526,-0.2361 -0.16526,2.36092 m -0.96123,12.14187 c 0,0.86567 0.0922,1.21981 0.20573,0.78697 0.11243,-0.43283 0.11243,-1.14111 0,-1.57394 -0.11355,-0.43284 -0.20573,-0.0787 -0.20573,0.78697 m -0.4497,5.39639 c 0,0.86567 0.0922,1.21981 0.20573,0.78697 0.11243,-0.43283 0.11243,-1.14111 0,-1.57394 -0.11355,-0.43284 -0.20573,-0.0787 -0.20573,0.78697 m -16.74342,41.24864 c -1.47951,0.5284 -2.2485,1.64365 -2.2485,3.26257 0,3.2918 3.75836,4.83651 6.09118,2.50258 2.73192,-2.7308 -0.16527,-7.07714 -3.84268,-5.76515"
     id="path0"
     style="stroke-width:1.12425;fill:#ffffff"
     inkscape:export-xdpi="158.75"
     inkscape:export-ydpi="158.75" />
  <path
     fill-rule="evenodd"
     fill="#45acdc"
     stroke="none"
     d="m 209.98531,37.228137 c 1.92808,0.08432 4.96355,0.08319 6.74548,-0.0011 1.78194,-0.08544 0.20462,-0.155146 -3.5054,-0.154022 -3.71002,0.0011 -5.16817,0.0697 -3.24008,0.155147 m -10.58254,0.432835 c 0.55875,0.107928 1.36821,0.103431 1.79879,-0.009 0.42947,-0.112425 -0.0281,-0.20124 -1.01744,-0.195619 -0.98934,0.0045 -1.34123,0.09669 -0.78135,0.204613 m 26.08254,0 c 0.55875,0.107928 1.36821,0.103431 1.7988,-0.009 0.42946,-0.112425 -0.0281,-0.20124 -1.01745,-0.195619 -0.98934,0.0045 -1.34122,0.09669 -0.78135,0.204613 m -33.62062,0.581236 c -2.24737,0.473308 0.0585,0.49242 2.69819,0.02249 1.82578,-0.323783 1.86962,-0.359759 0.4497,-0.356387 -0.86567,0.0011 -2.28222,0.151774 -3.14789,0.333902 m 40.02321,0.02249 c 2.74654,0.489048 4.86799,0.472184 2.92304,-0.02249 -0.742,-0.188874 -2.15855,-0.341771 -3.14789,-0.340647 l -1.79879,0.0034 2.02364,0.359759 m 9.44368,1.2704 c 1.62117,0.520526 5.37166,1.005077 4.27214,0.552005 -0.49467,-0.204613 -1.91122,-0.493544 -3.14789,-0.641945 -1.38395,-0.166389 -1.81679,-0.131537 -1.12425,0.08994 m -66.78031,1.855008 c -1.14561,0.492421 0.036,0.492421 1.57395,0 0.90389,-0.288931 0.94774,-0.363132 0.22485,-0.37325 -0.49467,-0.0067 -1.30413,0.160767 -1.7988,0.37325 m 75.77429,0 c 1.53797,0.492421 2.71956,0.492421 1.57395,0 -0.49467,-0.212483 -1.30413,-0.379995 -1.7988,-0.37325 -0.72289,0.01012 -0.67904,0.08432 0.22485,0.37325 m 2.05625,2.955647 c -0.16639,0.658809 -0.21473,1.285015 -0.10905,1.390695 0.1068,0.105679 0.32828,-0.346269 0.49354,-1.006202 0.16639,-0.658809 0.21473,-1.285015 0.10906,-1.390694 -0.10681,-0.10568 -0.32829,0.346268 -0.49355,1.006201 M 163.3088,44.53804 c -0.56662,0.243961 -0.64982,0.386741 -0.22485,0.386741 0.371,0 1.07928,-0.174259 1.57394,-0.386741 0.56662,-0.243962 0.64982,-0.386742 0.22485,-0.386742 -0.371,0 -1.07927,0.174259 -1.57394,0.386742 m -8.20701,2.711685 c -1.50537,0.605969 -1.22431,0.912889 0.33727,0.368753 0.74201,-0.258577 1.3491,-0.552006 1.3491,-0.650939 0,-0.266447 -0.54751,-0.175383 -1.68637,0.282186 m 95.67347,3.134402 c -0.27994,1.038805 -0.42047,1.977552 -0.31366,2.085479 0.10792,0.106804 0.41484,-0.665554 0.68129,-1.71785 0.26757,-1.052296 0.4081,-1.989918 0.31366,-2.084355 -0.0944,-0.09556 -0.40135,0.677921 -0.68129,1.716726 m -106.57867,1.573947 c -0.61834,0.353014 -0.92189,0.643069 -0.67455,0.643069 0.24733,0 0.95561,-0.290055 1.57395,-0.643069 0.61833,-0.353014 0.92188,-0.64307 0.67454,-0.64307 -0.24733,0 -0.95561,0.290056 -1.57394,0.64307 m 105.22957,3.372743 c -0.27993,1.038804 -0.42047,1.977551 -0.31366,2.085479 0.10793,0.106803 0.41485,-0.665555 0.68129,-1.71785 0.26757,-1.052296 0.4081,-1.989919 0.31367,-2.084355 -0.0944,-0.09556 -0.40136,0.677921 -0.6813,1.716726 m -115.23538,1.606549 c -1.68075,0.911765 -1.57844,1.291761 0.11243,0.417096 0.742,-0.383368 1.3491,-0.793719 1.3491,-0.91064 0,-0.290056 -0.0483,-0.273192 -1.46153,0.493544 m -4.27214,2.492457 c -1.53235,0.981469 -2.02926,1.641402 -0.67455,0.896026 1.03206,-0.566621 2.64873,-1.816784 2.36092,-1.825778 -0.12366,-0.0034 -0.88253,0.414847 -1.68637,0.929752 m 117.96618,1.554835 c -0.16639,0.658809 -0.21473,1.285015 -0.10905,1.390694 0.1068,0.105679 0.32828,-0.346268 0.49354,-1.006202 0.16639,-0.658809 0.21473,-1.285015 0.10905,-1.390694 -0.1068,-0.105679 -0.32828,0.346268 -0.49354,1.006202 m -131.03106,6.977079 c -2.52169,1.853885 -2.41825,2.16755 0.13604,0.410351 1.75944,-1.210815 2.37666,-1.798796 1.88761,-1.798796 -0.0753,0 -0.98597,0.625081 -2.02365,1.388445 m 127.88317,4.265396 c -0.16639,0.658809 -0.21473,1.285015 -0.10906,1.390694 0.10681,0.105679 0.32829,-0.346268 0.49355,-1.006202 0.16639,-0.658809 0.21473,-1.285015 0.10905,-1.390694 -0.1068,-0.105679 -0.32828,0.346268 -0.49354,1.006202 m -140.47474,5.813492 c -2.04051,1.855 -3.55262,3.36262 -3.36038,3.35138 0.38899,-0.0247 7.66063,-6.724131 7.29862,-6.724131 -0.12592,0 -1.89886,1.517735 -3.93824,3.372751 m 138.95026,-0.14278 c -0.26757,1.05229 -0.4081,1.98992 -0.31367,2.08435 0.0944,0.0956 0.40136,-0.67792 0.6813,-1.71672 0.27993,-1.03881 0.42046,-1.97756 0.31366,-2.085488 -0.10793,-0.106803 -0.41485,0.665558 -0.68129,1.717858 m 34.25582,0.36425 c -1.0017,0.40361 -2.41039,2.11022 -2.40814,2.91405 10e-4,0.25408 0.39124,-0.1765 0.8668,-0.95673 0.99046,-1.62341 3.01635,-2.2856 4.61503,-1.50987 0.99159,0.48231 0.99834,0.47331 0.16527,-0.19449 -0.96573,-0.77348 -1.79093,-0.83756 -3.23896,-0.25296 m -35.85563,5.45597 c -0.37437,1.87412 -0.0112,2.23726 0.39349,0.39349 0.17089,-0.77685 0.21698,-1.50762 0.10231,-1.62116 -0.11468,-0.11468 -0.33728,0.43733 -0.4958,1.22767 m 33.44637,-1.0804 c 0,0.26083 0.41709,0.95224 0.92638,1.53685 l 0.92525,1.06129 -0.78922,-1.3491 c -1.03993,-1.77519 -1.06241,-1.80217 -1.06241,-1.24904 m 7.44589,0.82295 c 0.0562,0.26083 -0.49467,0.73863 -1.2243,1.06129 -0.72964,0.32266 -1.23106,0.68242 -1.11413,0.79934 0.11692,0.11692 0.63407,-0.0135 1.1501,-0.29005 0.58911,-0.31479 1.22993,-0.35077 1.7246,-0.0967 0.43283,0.2226 1.06803,0.30467 1.41205,0.18213 0.36763,-0.13041 0.50142,-0.0225 0.32379,0.26307 -0.16414,0.26757 0.1113,0.70491 0.61271,0.9736 0.50141,0.2687 0.91177,0.38899 0.91177,0.26757 0,-0.12029 0.50815,0.28781 1.12762,0.90839 0.62058,0.62059 1.35696,0.98709 1.63578,0.81396 0.60259,-0.37213 -0.59586,-1.38507 -3.96747,-3.35138 -1.28052,-0.74763 -2.41039,-1.50425 -2.51157,-1.68188 -0.10119,-0.17763 -0.13829,-0.10905 -0.0809,0.15065 m -187.750467,3.99108 -3.34689,3.6302 3.5515,-3.46831 c 1.95394,-1.90785 3.46043,-3.54138 3.34801,-3.63019 -0.11243,-0.0899 -1.71111,1.47051 -3.55262,3.4683 m 105.654537,-1.31312 c -30.08599,3.77635 -55.35008,17.438195 -74.45892,40.267175 -3.64818,4.3587 -5.79437,7.1727 -5.47059,7.1727 0.12367,0 1.10289,-1.1636 2.17654,-2.58577 8.81523,-11.68094 24.43553,-23.27081 41.07214,-30.47611 20.63894,-8.937765 45.56126,-11.379625 68.09568,-6.670155 2.08211,0.43508 3.46718,0.53289 3.73475,0.26532 0.43171,-0.43171 1.86175,-5.96638 1.60767,-6.22158 -1.6369,-1.63691 -27.7543,-2.88145 -36.75727,-1.75158 m 89.32597,2.33394 c -0.4913,0.49129 0.65431,1.44128 1.39519,1.15685 0.4452,-0.17089 0.6026,-0.0922 0.41597,0.20911 -0.16976,0.27544 1.10626,1.51886 2.96239,2.88707 1.79318,1.32099 4.72746,3.67516 6.52064,5.23 1.79317,1.55595 3.27268,2.668955 3.28842,2.474455 0.0157,-0.19449 0.21136,0.10119 0.43509,0.65769 0.22372,0.5565 0.72963,1.01182 1.12312,1.01182 0.39349,0 0.60485,0.17988 0.46881,0.39911 -0.13603,0.21923 0.0551,0.64869 0.42272,0.95449 0.36875,0.30579 0.68467,0.37887 0.70153,0.16301 0.018,-0.21585 0.19,0.0124 0.38224,0.50704 0.19337,0.49467 0.63408,0.90839 0.98035,0.91963 0.34627,0.0112 0.58685,0.24172 0.53401,0.51266 -0.0528,0.27094 0.99721,1.52673 2.33394,2.79038 1.33673,1.26366 2.32495,2.29796 2.19678,2.29796 -0.12816,0 0.71615,1.11076 1.87637,2.46885 1.16023,1.35697 2.32157,2.33731 2.5824,2.17655 0.28668,-0.17764 0.0427,-0.66219 -0.61946,-1.23218 -0.60147,-0.51715 -1.0894,-1.07141 -1.08603,-1.23218 0.0112,-0.50029 -5.28396,-6.2317 -10.39704,-11.25147 -5.16704,-5.074845 -7.80902,-7.403165 -7.80902,-6.883755 0,0.17313 -0.39798,-0.16302 -0.88478,-0.74763 -0.48568,-0.58348 -0.89041,-0.88253 -0.8994,-0.6633 -0.008,0.21922 -0.44408,-0.14728 -0.96798,-0.81396 -0.55088,-0.70041 -1.22543,-1.10851 -1.59755,-0.96573 -0.35414,0.13604 -0.52728,0.0596 -0.38675,-0.16976 0.30243,-0.48792 -3.56161,-3.26706 -3.97196,-2.85671 m -200.204887,4.74545 -1.32099,1.46152 1.46152,-1.32099 c 0.80384,-0.72627 1.46152,-1.38395 1.46152,-1.46152 0,-0.3474 -0.371,-0.0416 -1.60205,1.32099 m 173.181347,0.74875 c -1.06804,2.10796 -1.1962,3.55037 -0.26532,2.97475 0.80496,-0.49804 2.32606,-4.40929 1.88536,-4.85 -0.29231,-0.2923 -0.84544,0.34627 -1.62004,1.87525 m 4.02818,2.73641 c -0.86455,1.70549 -0.98484,2.2485 -0.50142,2.2485 0.59698,0 1.97755,-1.93258 2.64873,-3.71002 0.69928,-1.84826 -1.08602,-0.63295 -2.14731,1.46152 m 4.36545,1.7662 c -2.2395,3.839295 -2.80837,5.428985 -1.94382,5.428985 0.59472,0 5.4481,-8.258715 5.4481,-9.270545 0,-1.16022 -1.62791,0.62396 -3.50428,3.84156 M 85.482813,97.939795 c -1.18833,1.42217 -2.45873,2.939895 -2.82299,3.372735 -0.36313,0.43283 -0.54189,0.78697 -0.39573,0.78697 0.14615,0 1.50649,-1.51773 3.02197,-3.372735 1.51549,-1.85501 2.66672,-3.37274 2.55654,-3.37274 -0.10905,0 -1.17146,1.16359 -2.35979,2.58577 m 189.897777,2.907295 c -0.67117,1.03543 -1.22093,2.14507 -1.22093,2.4666 0,1.17034 0.88928,0.53739 2.06524,-1.46827 1.58182,-2.700435 0.83307,-3.585215 -0.84431,-0.99833 m 3.64819,3.17038 c -0.65994,1.03431 -1.08153,2.07199 -0.9365,2.30696 0.30355,0.49242 3.2457,-2.81737 3.25582,-3.6628 0.0135,-1.14898 -1.1546,-0.46657 -2.31932,1.35584 m -199.929447,2.0169 c -16.085732,21.31573 -26.202836,44.85523 -30.20066,70.26547 -13.249258,84.21065 44.99688,163.40826 131.273887,178.4968 28.39175,4.96467 66.03606,1.23779 88.36586,-8.75002 0.74201,-0.33278 2.66447,-1.14336 4.27214,-1.80217 10.05303,-4.12262 15.06042,-7.1772 13.95192,-8.5128 -0.29568,-0.35639 -0.40811,-0.86005 -0.24846,-1.11751 0.40248,-0.65094 -0.0618,-0.58686 -1.24005,0.16977 -0.54751,0.35188 -3.85504,1.85838 -7.3492,3.34688 -29.54748,12.58933 -62.16865,16.14532 -94.96632,10.3532 -8.035,-1.41993 -16.38816,-3.66505 -25.27084,-6.79383 -45.89184,-16.16447 -82.779519,-53.52772 -98.01982,-99.2846 -15.371837,-46.15036 -7.377312,-98.58302 20.998693,-137.72033 2.54417,-3.5099 1.27377,-2.41601 -1.5672,1.3491 m 203.877797,0.75662 c -1.12986,1.37945 -1.46939,2.0956 -1.10063,2.32382 0.57336,0.35414 3.50765,-2.77577 3.51889,-3.75499 0.0124,-1.03993 -0.77461,-0.57449 -2.41826,1.43117 m 3.80671,2.83085 c -1.46152,1.77407 -1.61667,2.17205 -0.99609,2.55654 0.42497,0.26195 3.21198,-2.99724 3.21198,-3.75723 0,-0.91851 -0.84656,-0.45982 -2.21589,1.20069 m 3.60321,3.22322 c -1.52785,1.92809 -1.66164,2.30021 -0.8252,2.28785 0.70603,-0.0101 3.54363,-3.38174 3.16476,-3.75949 -0.53627,-0.53627 -0.96236,-0.26757 -2.33956,1.47164 m 3.34913,3.23896 c -2.07761,2.29908 -1.61104,3.16363 0.65207,1.21081 2.02477,-1.74595 2.42388,-2.44299 1.58294,-2.76565 -0.35189,-0.13491 -1.31312,0.53402 -2.23501,1.55484 m 25.12806,0.2181 c 0.0607,0.41935 0.48793,1.03768 0.94887,1.37383 0.46094,0.33728 0.68804,0.61272 0.50478,0.61272 -0.18212,0 0.29456,0.91064 1.06017,2.02364 0.76561,1.11301 1.58519,2.02365 1.82016,2.02365 0.23609,0 0.37887,0.15177 0.31816,0.33727 -0.1945,0.5981 1.97193,3.72464 2.39802,3.46044 0.52615,-0.32491 -0.32491,-1.96406 -1.19058,-2.29684 -0.35301,-0.13491 -0.53177,-0.42497 -0.39573,-0.64532 0.13491,-0.21923 -0.26645,-0.91064 -0.89153,-1.53684 -0.62621,-0.62621 -1.19395,-1.28502 -1.26141,-1.4649 -0.0675,-0.17988 -0.27431,-0.27656 -0.45982,-0.21473 -0.1855,0.0618 -0.36313,-0.0899 -0.39348,-0.33727 -0.0315,-0.24734 -0.0809,-0.66893 -0.11243,-0.93538 -0.0303,-0.26757 -0.40697,-0.74313 -0.83644,-1.05679 -0.42834,-0.31367 -0.67679,-0.67343 -0.55088,-0.79934 0.12592,-0.12479 -0.0641,-0.47106 -0.42047,-0.76674 -0.52502,-0.43621 -0.62845,-0.39349 -0.53739,0.2226 m -21.7407,3.2592 c -1.41543,1.2198 -1.82915,1.82128 -1.42442,2.07086 0.67792,0.42047 3.79658,-1.95394 4.01356,-3.05458 0.22373,-1.13437 -0.41372,-0.89265 -2.58914,0.98372 m 3.23109,3.59309 c -1.93483,1.70099 -2.31707,2.32944 -1.4143,2.32944 0.81058,0 4.00007,-2.71955 4.00007,-3.41096 0,-0.96348 -0.49355,-0.75662 -2.58577,1.08152 m 2.92304,3.737 c -1.65039,1.3491 -2.1282,2.19004 -1.24229,2.19004 0.76561,0 4.01806,-2.44637 4.03605,-3.03547 0.0281,-0.92751 -1.00733,-0.61384 -2.79376,0.84543 m 22.94028,-0.25183 c -0.47668,0.47668 0.97809,2.96127 1.53347,2.61837 0.28893,-0.17875 0.39798,-0.0472 0.26645,0.32266 -0.29231,0.8207 0.48117,2.29796 1.02643,1.96181 0.51603,-0.31928 -0.7375,-2.91067 -1.40868,-2.91067 -0.2552,0 -0.35751,-0.17201 -0.2271,-0.38337 0.31255,-0.50704 -0.79484,-2.00454 -1.19057,-1.6088 m -115.11396,1.87412 c 1.3075,0.0911 3.33114,0.0911 4.49699,-0.002 1.16696,-0.0922 0.0978,-0.16639 -2.37554,-0.16526 -2.47334,0.001 -3.42783,0.0764 -2.12145,0.16751 m -11.59437,1.01744 c -1.51099,0.48455 0.12142,0.48455 2.02365,0 1.21193,-0.30804 1.23442,-0.34402 0.22485,-0.35189 -0.61834,-0.004 -1.63016,0.15403 -2.2485,0.35189 m 25.408,0 c 0.742,0.18888 1.75382,0.35302 2.24849,0.36538 l 0.8994,0.0214 -0.8994,-0.38675 c -0.49467,-0.21248 -1.50649,-0.37662 -2.24849,-0.36538 l -1.3491,0.0225 1.3491,0.34289 m 81.06949,1.25354 c -1.5346,1.1175 -2.22826,2.34406 -1.32661,2.34406 0.69591,0 4.58131,-2.99275 4.27776,-3.29517 -0.52727,-0.5284 -1.23105,-0.3013 -2.95115,0.95111 m -112.54843,0.30467 c -1.73696,0.79484 -0.92863,0.80609 1.12425,0.0157 0.86567,-0.3339 1.2704,-0.61271 0.8994,-0.62058 -0.371,-0.007 -1.28164,0.26419 -2.02365,0.60484 m 37.77472,-0.20911 c 0.49467,0.21248 1.20295,0.38674 1.57395,0.38674 0.42496,0 0.34177,-0.14278 -0.22485,-0.38674 -0.49467,-0.21248 -1.20295,-0.38674 -1.57395,-0.38674 -0.42496,0 -0.34177,0.14278 0.22485,0.38674 m -41.82201,1.58969 c -1.12425,0.54188 -1.16247,0.60372 -0.22485,0.3755 1.27377,-0.31142 2.70607,-1.04218 2.02365,-1.03206 -0.24734,0.003 -1.0568,0.29905 -1.7988,0.65656 m 139.97445,-0.43396 c -0.39911,0.40023 0.88816,2.89156 1.49412,2.89156 0.25521,0 0.34178,0.19787 0.19225,0.44071 -0.39236,0.6352 0.62508,2.33731 1.18945,1.98879 0.32266,-0.19899 0.30355,-0.39911 -0.0607,-0.62508 -0.29568,-0.18213 -0.49018,-0.40923 -0.43172,-0.50591 0.29793,-0.49917 -0.60934,-2.1698 -1.03655,-1.9056 -0.31029,0.19225 -0.39349,0.0438 -0.2226,-0.40023 0.30017,-0.78473 -0.64195,-2.36542 -1.12425,-1.88424 m -20.69178,2.7544 c -1.6785,1.15236 -2.15293,1.93596 -1.17146,1.93596 0.68129,0 4.42953,-2.37778 4.43066,-2.81062 0.002,-0.68579 -1.62229,-0.24958 -3.2592,0.87466 m -62.84544,1.6875 c 0,0.12367 0.60709,0.53964 1.3491,0.92301 0.742,0.38337 1.3491,0.59697 1.3491,0.47331 0,-0.12367 -0.6071,-0.53964 -1.3491,-0.92301 -0.74201,-0.38337 -1.3491,-0.59698 -1.3491,-0.47331 m 65.65606,2.14956 c -1.81566,1.13886 -2.41826,1.85276 -1.75495,2.08098 0.7049,0.24284 4.45315,-1.87861 4.45315,-2.51944 0,-0.82632 -0.91851,-0.67679 -2.6982,0.43846 m 21.01556,-0.72064 c -0.35076,0.56662 0.87242,3.31653 1.47389,3.31653 0.27432,0 0.38337,0.1855 0.24396,0.41147 -0.43508,0.70378 0.59248,2.82524 1.19058,2.45648 0.42047,-0.26082 0.42047,-0.37437 -0.002,-0.5149 -0.29905,-0.10006 -0.43845,-0.35077 -0.30917,-0.55875 0.36651,-0.5936 -0.75661,-2.6982 -1.26927,-2.38116 -0.26757,0.16527 -0.35414,0.008 -0.20799,-0.37437 0.29343,-0.76337 -0.74875,-2.95565 -1.11975,-2.3553 m -83.52373,0.30804 c 0,0.10456 0.86005,0.75775 1.91123,1.45141 1.05117,0.69366 1.674,0.97247 1.38394,0.62171 -0.55875,-0.67568 -3.29517,-2.3969 -3.29517,-2.07312 m 4.27215,2.88482 c 1.09951,1.14561 5.73703,4.6409 4.8129,3.62795 -0.56775,-0.62283 -1.9843,-1.79992 -3.14789,-2.615 -1.16248,-0.81508 -1.91235,-1.27152 -1.66501,-1.01295 m -138.50731,1.47277 c -0.38337,0.742 -0.59698,1.34909 -0.47331,1.34909 0.12367,0 0.53964,-0.60709 0.92301,-1.34909 0.38337,-0.74201 0.59697,-1.3491 0.47331,-1.3491 -0.12367,0 -0.53964,0.60709 -0.92301,1.3491 m 198.98508,0.39011 c -0.8623,0.46094 -1.63465,1.18158 -1.71785,1.60093 -0.16077,0.81395 4.01694,-0.97023 4.64202,-1.98205 0.46094,-0.74538 -1.23442,-0.5239 -2.92417,0.38112 m -146.33319,2.55204 c -0.96798,0.85443 -1.56495,1.55484 -1.32437,1.55484 0.23947,0 1.12313,-0.70828 1.96182,-1.57395 1.9382,-2.00004 1.63915,-1.99104 -0.63745,0.0191 m 168.22454,-0.81395 c -0.17651,0.28668 -0.0517,1.18271 0.27881,1.99216 0.42272,1.03544 0.6768,1.2704 0.86005,0.79485 0.34515,-0.90053 -0.7094,-3.4818 -1.13886,-2.78701 m -20.00599,2.57902 c -3.95397,1.92359 -5.52792,3.38623 -2.94777,2.73867 1.79767,-0.45083 8.71404,-3.90676 8.71404,-4.35421 0,-0.82408 -1.77968,-0.32491 -5.76627,1.61554 m -54.0437,0.91401 c 1.34347,1.36034 2.54417,2.47335 2.66784,2.47335 0.12366,0 -0.87467,-1.11301 -2.21814,-2.47335 -1.34348,-1.36034 -2.54418,-2.47334 -2.66784,-2.47334 -0.12367,0 0.87466,1.113 2.21814,2.47334 m 75.42465,-0.0978 c -0.16302,0.42497 -0.0888,0.77236 0.16526,0.77236 0.25408,0 0.35189,0.17876 0.21586,0.39799 -0.39574,0.64194 0.68017,3.22996 1.20744,2.90393 0.30692,-0.18888 0.38337,0.063 0.21473,0.70603 -0.37213,1.42217 0.52839,3.85841 1.18383,3.20298 0.33053,-0.33053 0.34852,-0.61159 0.0517,-0.82183 -0.24846,-0.17426 -0.48118,-0.91401 -0.51716,-1.64252 -0.0349,-0.72852 -0.40697,-1.57507 -0.82632,-1.88087 -0.41822,-0.30692 -0.6352,-0.76224 -0.48005,-1.01182 0.15514,-0.25071 0.0112,-1.1175 -0.31929,-1.92696 -0.48118,-1.17934 -0.65881,-1.31762 -0.89602,-0.69929 m -175.05435,3.13328 -1.77744,1.91122 1.91122,-1.77743 c 1.77744,-1.65377 2.11809,-2.04501 1.77744,-2.04501 -0.0731,0 -0.93313,0.86005 -1.91122,1.91122 m -51.3961,-0.31816 c -0.75325,1.65377 -0.60935,2.00678 0.20461,0.50366 0.38112,-0.70265 0.60822,-1.36146 0.50479,-1.46377 -0.10231,-0.10343 -0.4216,0.32941 -0.7094,0.96011 m 207.36297,0.57899 c -1.9753,0.74313 -2.93541,1.88311 -1.5717,1.86513 1.29176,-0.0157 4.67687,-1.74146 4.37445,-2.23051 -0.3384,-0.54863 -0.39349,-0.54189 -2.80275,0.36538 m -51.68504,2.00566 c 2.45311,3.05008 2.47222,3.1344 0.85668,3.81344 -1.12537,0.47219 -1.13549,0.4958 -0.11242,0.26083 2.29121,-0.52727 1.69199,-2.54417 -1.66389,-5.60662 -0.64644,-0.58911 -0.23272,0.10005 0.91963,1.53235 m -109.57254,4.0293 c -10.39929,12.95133 -15.62817,26.49964 -15.75071,40.81019 -0.063,7.44139 -0.64419,7.12211 7.6921,4.22717 3.89102,-1.35135 8.79499,-3.04671 10.89734,-3.76623 2.10234,-0.72064 7.97091,-2.75778 13.04127,-4.52735 5.07035,-1.77069 10.02829,-3.48629 11.01762,-3.81457 0.98934,-0.32715 5.94727,-2.045 11.01763,-3.81569 5.07036,-1.77069 12.35548,-4.29463 16.18917,-5.60775 3.83368,-1.31425 8.79161,-3.03547 11.01762,-3.82469 2.22601,-0.78922 4.95793,-1.7246 6.07094,-2.07874 1.113,-0.35301 3.33901,-1.12986 4.94669,-1.72459 1.60767,-0.59585 6.26206,-2.22376 10.34308,-3.62008 23.23482,-7.94393 21.06165,-6.96921 19.7564,-8.85907 -0.5655,-0.81845 -1.0478,-1.52673 -1.07366,-1.57507 -0.0483,-0.0922 -8.89392,2.93204 -27.90157,9.54036 -6.18337,2.14957 -12.05194,4.17546 -13.04128,4.50149 -0.98933,0.32716 -5.94727,2.04276 -11.01762,3.81457 -5.07036,1.77182 -14.17676,4.93882 -20.23646,7.03779 -6.05969,2.09897 -13.04127,4.52847 -15.51462,5.39864 -2.47334,0.87017 -5.30644,1.85276 -6.29578,2.18217 -0.98934,0.33052 -6.23283,2.13269 -11.65395,4.00681 -5.42,1.87412 -9.9732,3.2873 -10.11823,3.14115 -0.58124,-0.58573 -0.16302,-12.2453 0.57674,-16.04751 1.71223,-8.80848 6.55886,-20.13977 11.24809,-26.2984 3.50316,-4.60042 2.76565,-4.05291 -1.21081,0.8994 m -48.00111,-2.07449 c -0.24845,0.65319 -0.36762,1.2704 -0.26532,1.37271 0.10118,0.10231 0.40023,-0.43171 0.66331,-1.18721 0.58461,-1.67737 0.23159,-1.84151 -0.39799,-0.1855 m 210.5446,0.69029 c -1.303,0.59698 -1.81116,1.05117 -1.51436,1.34797 0.58461,0.58461 5.05012,-0.9691 5.05012,-1.75607 0,-0.7926 -1.23105,-0.65094 -3.53576,0.4081 m 20.95035,0.94437 c -0.37437,0.97697 0.61272,4.58918 1.0568,3.86966 0.3665,-0.59248 0.0922,-2.84097 -0.47781,-3.92925 -0.26307,-0.50141 -0.36763,-0.49017 -0.57899,0.0596 m -18.87611,3.37162 c -1.79206,0.59697 -3.00512,1.90222 -1.7662,1.90222 1.18271,0 4.57681,-1.53235 4.57681,-2.06636 0,-0.751 -0.0686,-0.74763 -2.81061,0.16414 m 20.12852,1.44466 c -0.19224,0.31254 -0.0922,0.71389 0.22823,0.91176 0.31479,0.19562 0.45869,0.65319 0.31816,1.01744 -0.13941,0.36538 -0.005,1.75158 0.30017,3.08157 0.48118,2.09784 0.60148,2.27547 0.91177,1.34909 0.19674,-0.58685 0.18325,-1.19395 -0.0281,-1.34909 -0.21248,-0.15402 -0.43283,-1.15236 -0.48905,-2.21702 -0.12366,-2.30246 -0.71839,-3.63919 -1.24117,-2.79375 m -235.56472,1.52897 c -0.16864,0.44071 -0.29455,1.13886 -0.27881,1.55146 0.0191,0.49692 0.17538,0.38337 0.46319,-0.33615 0.23834,-0.59697 0.36425,-1.29513 0.27881,-1.55146 -0.0854,-0.2552 -0.29343,-0.10455 -0.46319,0.33615 m 216.33559,1.76282 c -0.9275,0.2597 -1.68637,0.73976 -1.68637,1.06804 0,0.73188 0.17426,0.73076 2.67459,-0.0169 3.6583,-1.09389 2.72068,-2.08997 -0.98822,-1.05117 m -218.19172,5.50994 c -0.16864,0.90277 -0.21811,1.73134 -0.10793,1.84152 0.11018,0.10905 0.3384,-0.53852 0.50816,-1.44129 0.16864,-0.90277 0.2181,-1.73134 0.10793,-1.84152 -0.11018,-0.10905 -0.3384,0.53852 -0.50816,1.44129 m 219.68585,-0.97697 c -1.76507,0.46993 -3.11079,1.62679 -1.89099,1.62679 1.51661,0 5.02764,-1.06017 4.88936,-1.47614 -0.23834,-0.71502 -0.77236,-0.74201 -2.99837,-0.15065 m 19.617,-0.0146 c -0.12817,0.33391 -0.0113,2.30696 0.26082,4.38457 0.44071,3.38398 0.5284,3.61333 0.83869,2.20352 0.28893,-1.31199 -0.31254,-7.19518 -0.73526,-7.19518 -0.0719,0 -0.23609,0.27319 -0.36425,0.60709 m -18.07566,4.56108 c -0.24733,0.0821 -1.03543,0.27993 -1.75158,0.43845 -0.86117,0.19112 -1.1501,0.44071 -0.85442,0.73638 0.5936,0.59361 4.72296,-0.10343 4.96805,-0.83868 0.17313,-0.51941 -1.21869,-0.7184 -2.36205,-0.33615 m -222.54144,3.41658 c -0.15627,0.78136 -0.26082,1.9517 -0.23159,2.60151 0.0281,0.64982 0.23384,0.0866 0.45532,-1.24904 0.43283,-2.606 0.24846,-3.71563 -0.22373,-1.35247 m 241.98081,0.2316 c -0.45532,0.45532 -0.41148,2.42613 0.054,2.42613 0.21024,0 0.38225,6.17886 0.38225,13.73156 0,7.55157 -0.17201,13.83724 -0.38225,13.96652 -0.51266,0.31817 -0.4868,2.31371 0.036,2.63636 0.78585,0.48568 1.10738,-4.94781 1.0478,-17.74287 -0.0562,-11.97886 -0.34627,-15.80917 -1.13774,-15.0177 m -20.47705,1.39744 c -0.98484,0.18887 -1.2288,1.08602 -0.30017,1.10513 1.5582,0.0337 4.7106,-0.6307 4.7106,-0.99158 0,-0.43059 -2.42163,-0.49355 -4.41043,-0.11355 m 1.79543,4.53859 c -1.61555,0.0922 -2.32832,0.31141 -2.20016,0.67455 0.18663,0.53064 4.67013,0.60709 5.18841,0.0888 0.5565,-0.5565 -0.7555,-0.89153 -2.98825,-0.76336 m -224.30539,10.20592 c 0,3.46268 0.0708,4.81965 0.15627,3.01523 0.0854,-1.80329 0.0854,-4.6364 -0.001,-6.29579 -0.0866,-1.65826 -0.15627,-0.18213 -0.15515,3.28056 m 223.21037,-5.32107 c -0.43284,0.11805 -0.78698,0.4126 -0.78698,0.65431 0,0.58012 4.92421,0.30692 5.06474,-0.27993 0.11242,-0.47444 -2.93991,-0.74201 -4.27776,-0.37438 m -46.43143,0.83982 c -1.28614,0.61946 -0.32378,0.54526 1.42218,-0.11018 0.2878,-0.10793 0.61833,0.17201 0.73525,0.62396 0.16976,0.65768 0.22148,0.61946 0.2642,-0.19225 0.0596,-1.16247 -0.51715,-1.23892 -2.42163,-0.32153 m -8.99398,3.14789 c -1.12425,0.54189 -1.16247,0.60372 -0.22485,0.3755 1.27377,-0.31142 2.70607,-1.04218 2.02365,-1.03206 -0.24734,0.003 -1.0568,0.29905 -1.7988,0.65656 m 54.63843,1.33336 c 0,0.52502 0.59923,0.67455 2.6982,0.67455 2.09897,0 2.69819,-0.14953 2.69819,-0.67455 0,-0.52503 -0.59922,-0.67455 -2.69819,-0.67455 -2.09897,0 -2.6982,0.14952 -2.6982,0.67455 m -67.6797,3.16363 c -1.12425,0.54189 -1.16247,0.60372 -0.22485,0.3755 1.27377,-0.31142 2.70606,-1.04218 2.02364,-1.03206 -0.24733,0.003 -1.05679,0.29905 -1.79879,0.65656 m 67.81574,1.25129 c -0.39574,0.64194 0.20011,0.85218 2.60151,0.91738 3.33002,0.0911 3.47842,-0.92638 0.16526,-1.12987 -1.39744,-0.0854 -2.64198,0.0101 -2.76677,0.21249 m -72.87486,0.32041 c -1.50536,0.60597 -1.2243,0.91289 0.33728,0.36875 0.742,-0.25858 1.3491,-0.552 1.3491,-0.65094 0,-0.26645 -0.54751,-0.17538 -1.68638,0.28219 m 28.96737,3.09842 c -0.16527,1.58519 -0.21586,2.96689 -0.11243,3.07145 0.27882,0.27769 0.84207,-4.67013 0.61159,-5.36266 -0.10905,-0.32603 -0.33277,0.7049 -0.49916,2.29121 m 43.43193,1.4975 c 0.21923,0.66218 4.78817,1.2288 5.15243,0.6397 0.42496,-0.68804 -0.89603,-1.18721 -3.16363,-1.19508 -1.54022,-0.004 -2.12034,0.1574 -1.9888,0.55538 m -90.72472,1.92697 c -1.12425,0.54189 -1.16247,0.60372 -0.22485,0.3755 1.27377,-0.31142 2.70606,-1.04218 2.02364,-1.03206 -0.24733,0.003 -1.05679,0.29905 -1.79879,0.65656 m -130.58473,2.94441 c 0.0292,0.84543 0.2181,2.14394 0.41934,2.88594 0.24171,0.88703 0.28106,0.42497 0.1158,-1.3491 -0.27657,-2.97363 -0.61834,-3.95622 -0.53514,-1.53684 m 220.74939,-0.30917 c 0,0.63407 1.87974,1.17146 4.1035,1.17146 1.28726,0 1.79992,-0.77235 0.73076,-1.10063 -1.9427,-0.59586 -4.83426,-0.63858 -4.83426,-0.0708 m -44.43814,2.15293 c -0.26757,1.0523 -0.4081,1.98992 -0.31366,2.08436 0.0944,0.0956 0.40135,-0.67792 0.68129,-1.71673 0.27994,-1.0388 0.42047,-1.97755 0.31367,-2.08548 -0.10793,-0.1068 -0.41485,0.66556 -0.6813,1.71785 m -58.76779,-0.29118 c -1.12425,0.54189 -1.16248,0.60372 -0.22485,0.3755 1.27377,-0.31142 2.70606,-1.04218 2.02364,-1.03206 -0.24733,0.003 -1.05679,0.29905 -1.79879,0.65656 m 123.5683,4.42954 c -0.29231,2.06187 -0.34177,3.94273 -0.11805,4.49699 0.21136,0.52277 0.39911,0.74875 0.41597,0.50141 0.0169,-0.24733 0.21474,-1.57282 0.43959,-2.94553 0.22485,-1.37158 0.26419,-3.19286 0.0866,-4.04729 -0.2878,-1.38619 -0.3755,-1.17484 -0.82407,1.99442 m -23.95997,-2.07761 c 0,0.67117 0.96236,0.94662 5.90118,1.68749 5.31319,0.79822 5.0074,0.78923 4.79379,0.1484 -0.35863,-1.0759 -10.69497,-2.85109 -10.69497,-1.83589 m -108.60231,0.79597 c -1.12425,0.54188 -1.16248,0.60372 -0.22485,0.37549 1.27377,-0.31141 2.70606,-1.04217 2.02364,-1.03205 -0.24733,0.003 -1.05679,0.29905 -1.79879,0.65656 m 66.38007,1.60767 c -0.27656,0.79484 -0.42496,1.52448 -0.32828,1.62004 0.0967,0.0967 0.40136,-0.47556 0.67905,-1.26927 0.27656,-0.79485 0.42496,-1.52448 0.32828,-1.62005 -0.0967,-0.0967 -0.40136,0.47556 -0.67905,1.26928 m -79.42135,2.88932 c -1.12424,0.54188 -1.16247,0.60372 -0.22485,0.3755 1.27378,-0.31142 2.70607,-1.04218 2.02365,-1.03206 -0.24734,0.003 -1.05679,0.29905 -1.7988,0.65656 m 123.44239,-0.0585 c 0,0.51265 3.53801,1.41542 4.93545,1.25803 1.0388,-0.1158 0.0944,-0.97585 -1.51886,-1.3817 -2.65323,-0.66893 -3.41659,-0.64082 -3.41659,0.12367 m -217.12819,0.94211 c -0.007,0.49467 0.16077,1.30413 0.37325,1.7988 0.49242,1.14561 0.49242,-0.036 0,-1.57395 -0.28893,-0.90389 -0.36313,-0.94774 -0.37325,-0.22485 m 171.33196,0.91852 c -0.75324,1.65376 -0.60934,2.00678 0.20462,0.50366 0.38112,-0.70266 0.60822,-1.36147 0.50478,-1.46377 -0.1023,-0.10343 -0.42159,0.3294 -0.7094,0.96011 m -82.368,-0.24397 c -0.59922,0.38787 -0.59922,0.43621 0,0.43621 0.371,0 0.9781,-0.19674 1.3491,-0.43621 0.59922,-0.38786 0.59922,-0.4362 0,-0.4362 -0.371,0 -0.9781,0.19674 -1.3491,0.4362 m 148.9111,2.60826 c -0.27207,1.26927 -0.3755,2.61725 -0.22935,2.99724 0.14615,0.38 0.0652,0.69029 -0.17763,0.69029 -0.61834,0 -1.92471,5.43574 -1.49188,6.20922 0.46994,0.84094 1.39294,-2.72068 1.0478,-4.04167 -0.15739,-0.60147 -0.0765,-0.85106 0.2181,-0.67005 0.53627,0.33278 1.65152,-3.54026 1.21981,-4.23842 -0.15065,-0.24508 -0.0394,-0.73076 0.24846,-1.07815 0.35189,-0.42384 0.38225,-0.88478 0.0922,-1.40306 -0.34514,-0.61609 -0.53177,-0.3058 -0.9275,1.5346 m -153.18324,-1.01857 c -1.12425,0.54189 -1.16247,0.60372 -0.22485,0.3755 1.27378,-0.31142 2.70607,-1.04218 2.02365,-1.03206 -0.24734,0.003 -1.05679,0.29905 -1.7988,0.65656 m 131.53697,1.28839 c 0,0.83419 4.3722,1.92359 5.03888,1.25691 0.32603,-0.32604 -0.2597,-0.68579 -1.91684,-1.17822 -2.9163,-0.86567 -3.12204,-0.87129 -3.12204,-0.0787 m -214.89318,1.61891 c 0,0.37101 0.17426,1.07928 0.38674,1.57395 0.24396,0.56662 0.38674,0.64982 0.38674,0.22485 0,-0.371 -0.17426,-1.07928 -0.38674,-1.57395 -0.24396,-0.56662 -0.38674,-0.64981 -0.38674,-0.22485 m 70.31494,1.58969 c -1.12425,0.54189 -1.16247,0.60372 -0.22485,0.3755 1.27377,-0.31142 2.70606,-1.04218 2.02365,-1.03206 -0.24734,0.003 -1.0568,0.29905 -1.7988,0.65656 m 96.2356,1.10851 c -0.38337,0.742 -0.59698,1.3491 -0.47331,1.3491 0.12366,0 0.53964,-0.6071 0.923,-1.3491 0.38337,-0.74201 0.59698,-1.3491 0.47331,-1.3491 -0.12366,0 -0.53964,0.60709 -0.923,1.3491 m 46.76645,0.003 c -0.15402,0.24846 -0.0135,0.54863 0.31141,0.66668 4.20806,1.5256 4.86237,1.6133 4.86237,0.64644 0,-0.79709 -4.74769,-2.00228 -5.17378,-1.31312 m -211.7734,2.24512 c 0.16526,0.61834 0.48905,1.4278 0.71727,1.7988 0.29006,0.46881 0.32603,0.33165 0.11692,-0.4497 -0.16526,-0.61834 -0.48905,-1.42779 -0.71727,-1.7988 -0.29005,-0.46881 -0.32603,-0.33165 -0.11692,0.4497 m 59.77737,-0.20911 c -1.12425,0.54189 -1.16247,0.60372 -0.22485,0.3755 1.27377,-0.31141 2.70606,-1.04218 2.02365,-1.03206 -0.24734,0.003 -1.0568,0.29905 -1.7988,0.65656 m -5.39639,1.76732 c -1.73696,0.79484 -0.92863,0.80609 1.12425,0.0157 0.86567,-0.3339 1.2704,-0.61271 0.8994,-0.62058 -0.37101,-0.007 -1.28165,0.26419 -2.02365,0.60484 m 155.91178,0.73863 c 0.29905,0.89603 4.42392,2.36205 5.00628,1.77969 0.47218,-0.47219 -1.34798,-1.43454 -3.94386,-2.08548 -0.9781,-0.24621 -1.22318,-0.17539 -1.06242,0.30579 m -208.67609,2.22264 c 0.26307,0.75549 0.56212,1.28951 0.6633,1.1872 0.22373,-0.2226 -0.62508,-2.55878 -0.92862,-2.55878 -0.11693,0 0.002,0.61721 0.26532,1.37158 m 230.22005,0.47893 c -0.2687,0.77011 -0.36988,1.59306 -0.22373,1.82915 0.14503,0.23497 -0.0438,0.66668 -0.41934,0.96011 -0.81171,0.6307 -1.74146,3.79771 -1.21194,4.12486 0.41822,0.25858 1.41318,-2.26086 1.04105,-2.63411 -0.13378,-0.13266 0.0855,-0.56887 0.48568,-0.97023 0.40136,-0.40023 0.75887,-1.06691 0.79709,-1.48288 0.13041,-1.43791 0.18213,-1.65602 0.51266,-2.18441 0.18325,-0.29231 0.14727,-0.64644 -0.0809,-0.78698 -0.2271,-0.14053 -0.63182,0.37438 -0.90052,1.14449 m -23.43382,1.68749 c 0,0.67568 4.61054,2.37441 5.10521,1.87975 0.29455,-0.29456 -0.22822,-0.75213 -1.54247,-1.34798 -2.11133,-0.95786 -3.56274,-1.17484 -3.56274,-0.53177 m -52.60242,3.64257 c -6.8343,7.88997 -18.08352,14.67255 -30.81675,18.58493 -14.91427,4.58019 -34.20411,2.82186 -49.15997,-4.48237 -2.79826,-1.36709 -5.14231,-2.41489 -5.20752,-2.32832 -1.22768,1.62117 -4.10013,7.01643 -3.64369,6.84105 0.34515,-0.13266 1.80105,0.37662 3.23671,1.13099 28.81222,15.15373 64.13608,6.9501 86.41417,-20.06894 2.66447,-3.23109 2.04613,-2.98825 -0.82295,0.32266 m 51.05883,0.41484 c -0.30692,0.49692 3.36825,2.74766 4.488,2.74766 1.03093,0 -0.23385,-1.50087 -1.8775,-2.22713 -2.40476,-1.06466 -2.28896,-1.04105 -2.6105,-0.52053 m -183.50756,1.63916 c -1.12425,0.54188 -1.16248,0.60372 -0.22485,0.3755 1.27377,-0.31142 2.70606,-1.04218 2.02364,-1.03206 -0.24733,0.003 -1.05679,0.29905 -1.79879,0.65656 m 205.45063,0.90726 c -0.19225,0.72852 -0.29456,1.59868 -0.22598,1.93259 0.0675,0.3339 -0.072,0.4868 -0.30917,0.33952 -0.48567,-0.29905 -1.91122,2.88932 -1.55371,3.4773 0.38787,0.63857 1.13887,-0.47106 1.13887,-1.68413 0,-0.63182 0.17763,-1.03993 0.39348,-0.90614 0.21698,0.13379 0.39349,0.15515 0.39349,0.0461 0,-0.10792 0.29006,-0.88928 0.64307,-1.73583 0.39124,-0.93538 0.4913,-1.78643 0.25633,-2.16755 -0.29006,-0.46881 -0.47668,-0.29118 -0.73638,0.69815 m -23.99707,1.75833 c 0,0.71052 3.05908,2.49021 4.28114,2.49021 1.15909,0 0.31591,-0.83307 -2.06412,-2.03939 -1.76732,-0.89602 -2.21702,-0.98709 -2.21702,-0.45082 m -194.49484,1.8314 c -1.12424,0.54188 -1.16247,0.60372 -0.22484,0.3755 1.27377,-0.31142 2.70606,-1.04218 2.02364,-1.03206 -0.24733,0.003 -1.05679,0.29905 -1.7988,0.65656 m 192.24635,2.45198 c 0,0.48905 3.30753,2.70382 4.03829,2.70382 1.06354,0 0.32266,-1.19733 -1.31986,-2.13607 -1.92022,-1.09615 -2.71843,-1.26366 -2.71843,-0.56775 m 23.11565,0.97248 c -0.19674,0.58123 -0.29793,1.36033 -0.22597,1.73134 0.072,0.371 -0.0304,0.51603 -0.22598,0.32266 -0.19674,-0.19225 -0.60372,0.1113 -0.90614,0.67454 -0.42946,0.80384 -0.94887,1.03206 -2.39915,1.05455 -1.35471,0.0202 -2.1192,0.31816 -2.84771,1.10738 l -0.99609,1.07928 1.0107,-0.83869 c 0.94774,-0.78585 5.06024,-1.35472 5.06024,-0.69928 0,0.15177 0.31479,0.6678 0.69928,1.14898 0.6723,0.83869 0.6813,0.83419 0.21361,-0.13154 -0.39461,-0.81508 -0.26532,-1.43903 0.68467,-3.3154 0.76448,-1.50762 1.01856,-2.46323 0.73076,-2.75104 -0.28669,-0.28668 -0.56438,-0.0731 -0.79822,0.61722 m -25.63734,2.70943 c -0.34065,0.54976 1.18158,1.85838 3.09842,2.66447 1.64365,0.69029 2.13607,0.14503 0.76,-0.84206 -2.60376,-1.86738 -3.55375,-2.31708 -3.85842,-1.82241 m -2.61051,3.90451 c -0.33165,0.53739 2.96689,3.21198 3.96073,3.21198 1.06241,0 0.87916,-0.69479 -0.40248,-1.52223 -0.61834,-0.39911 -1.61105,-1.04106 -2.2069,-1.42555 -0.64644,-0.41709 -1.19058,-0.5239 -1.35135,-0.2642 m 20.49391,0.99721 c -0.0551,1.24342 0.20911,1.85613 1.16473,2.6982 l 1.23667,1.09052 -0.9781,-1.12425 c -0.53851,-0.61834 -1.06241,-1.83253 -1.16472,-2.6982 l -0.18662,-1.57394 -0.072,1.60767 m -152.74483,3.11459 c -0.38337,0.742 -0.59698,1.34909 -0.47331,1.34909 0.12367,0 0.53964,-0.60709 0.92301,-1.34909 0.38337,-0.74201 0.59697,-1.3491 0.47331,-1.3491 -0.12367,0 -0.53964,0.60709 -0.92301,1.3491 m 129.28847,-0.0382 c 0,0.52615 3.33902,3.18612 4.00008,3.18612 1.03992,0 0.40922,-1.17259 -1.2704,-2.36092 -1.7943,-1.26927 -2.72968,-1.55146 -2.72968,-0.8252 m -131.87986,4.33173 c -0.66443,1.10176 -1.11526,2.00228 -1.00058,2.00228 0.30579,0 2.56103,-3.65493 2.37216,-3.8438 -0.0888,-0.0888 -0.70603,0.73976 -1.37158,1.84152 m 128.99055,-0.751 c -0.13379,0.21811 0.71052,1.13886 1.87637,2.04838 2.63523,2.05175 3.29292,1.21194 0.74087,-0.94774 -1.86063,-1.57395 -2.22825,-1.72909 -2.61724,-1.10064 m -2.95678,3.64706 c 0,0.49355 3.17938,3.57174 3.71002,3.59085 0.85443,0.0315 0.18775,-1.37496 -1.25241,-2.63974 -1.62004,-1.42217 -2.45761,-1.74595 -2.45761,-0.95111 m -5.39638,1.29626 c 0,0.65319 6.86578,7.70334 7.5021,7.70334 1.28052,0 0.44408,-1.31762 -2.94328,-4.63302 -3.26144,-3.19286 -4.55882,-4.06641 -4.55882,-3.07032 m -126.14058,5.00515 c -0.38337,0.742 -0.59698,1.3491 -0.47331,1.3491 0.12366,0 0.53964,-0.6071 0.923,-1.3491 0.38337,-0.742 0.59698,-1.3491 0.47331,-1.3491 -0.12366,0 -0.53964,0.6071 -0.923,1.3491 m 124.79148,0.25071 c 0,0.59922 2.90393,3.79658 3.44807,3.79658 0.87466,0 0.75549,-0.34852 -0.7881,-2.29571 -1.18496,-1.49638 -2.65997,-2.32832 -2.65997,-1.50087 m 25.24723,4.98266 c 0.96685,2.63186 1.88199,4.98492 2.03376,5.23 0.27994,0.45195 5.09509,-6.69377 5.09622,-7.56281 10e-4,-0.44071 -6.73762,-2.45086 -8.21713,-2.45086 -0.52727,0 -0.29455,1.02644 1.08715,4.78367 m -28.57276,-2.1608 c -0.38336,0.61833 2.31595,4.12261 3.176,4.12261 0.93088,0 0.7094,-0.51603 -1.14223,-2.65772 -1.10401,-1.27827 -1.82803,-1.79879 -2.03377,-1.46489 m -128.88599,11.96874 c 0,0.12366 0.60709,0.53964 1.3491,0.923 0.742,0.38337 1.3491,0.59698 1.3491,0.47331 0,-0.12366 -0.6071,-0.53964 -1.3491,-0.923 -0.74201,-0.38337 -1.3491,-0.59698 -1.3491,-0.47331 m 13.04127,6.46892 c 0.371,0.22822 1.18046,0.552 1.7988,0.71727 0.78135,0.20911 0.91851,0.17313 0.4497,-0.11692 -0.371,-0.22823 -1.18046,-0.55201 -1.7988,-0.71727 -0.78135,-0.20911 -0.91851,-0.17314 -0.4497,0.11692 m 15.06492,5.02201 c 0.49467,0.21248 1.20295,0.38674 1.57395,0.38674 0.42496,0 0.34177,-0.14278 -0.22485,-0.38674 -0.49467,-0.21248 -1.20295,-0.38674 -1.57395,-0.38674 -0.42496,0 -0.34177,0.14278 0.22485,0.38674 m 55.31298,0 c -1.14561,0.49242 0.036,0.49242 1.57395,0 0.90389,-0.28893 0.94774,-0.36313 0.22485,-0.37325 -0.49467,-0.007 -1.30413,0.16077 -1.7988,0.37325 m -49.24204,1.3491 c 0.61833,0.19787 1.63016,0.35639 2.24849,0.35189 1.00958,-0.008 0.98709,-0.0438 -0.22485,-0.35189 -1.90222,-0.48455 -3.53463,-0.48455 -2.02364,0 m 42.49656,0 c -1.21194,0.30804 -1.23443,0.34402 -0.22485,0.35189 0.61833,0.005 1.63016,-0.15402 2.24849,-0.35189 1.51099,-0.48455 -0.12142,-0.48455 -2.02364,0 m 41.82201,1.7988 c 0.38337,0.742 0.79934,1.34909 0.92301,1.34909 0.12366,0 -0.0899,-0.60709 -0.47331,-1.34909 -0.38337,-0.74201 -0.79934,-1.3491 -0.92301,-1.3491 -0.12367,0 0.0899,0.60709 0.47331,1.3491 m -49.12962,-0.58914 c 0.43283,0.11242 1.14111,0.11242 1.57394,0 0.43284,-0.11355 0.0787,-0.20574 -0.78697,-0.20574 -0.86567,0 -1.21981,0.0922 -0.78697,0.20574 m -18.23755,0.74987 c 4.10126,0.22036 9.50439,0.22148 12.36673,0.002 4.34971,-0.33165 3.29629,-0.38786 -7.28288,-0.39011 -12.27566,-0.003 -12.31276,0 -5.08385,0.38786 m 68.95798,2.31258 c 0.002,0.24733 0.41709,0.95561 0.92301,1.57395 0.61046,0.7465 0.76336,0.82182 0.45419,0.22485 -0.75774,-1.46715 -1.38057,-2.27998 -1.3772,-1.7988 m 5.58976,9.44368 c 0.69253,1.23667 1.46714,2.45086 1.72235,2.69819 0.2552,0.24734 -0.10231,-0.56212 -0.79372,-1.79879 -0.69254,-1.23667 -1.46715,-2.45086 -1.72235,-2.6982 -0.25521,-0.24733 0.10231,0.56213 0.79372,1.7988 m 5.97313,18.47026 c -1.68075,0.91177 -1.57845,1.29176 0.11242,0.4171 0.742,-0.38337 1.3491,-0.79372 1.3491,-0.91064 0,-0.29006 -0.0484,-0.27319 -1.46152,0.49354"
     id="path2"
     style="stroke-width:1.12425;fill:#b3b3b3"
     inkscape:export-xdpi="158.75"
     inkscape:export-ydpi="158.75" />
</svg>
