<?xml version="1.0" encoding="UTF-8" standalone="no"?>
<svg
   xmlns:dc="http://purl.org/dc/elements/1.1/"
   xmlns:cc="http://creativecommons.org/ns#"
   xmlns:rdf="http://www.w3.org/1999/02/22-rdf-syntax-ns#"
   xmlns:svg="http://www.w3.org/2000/svg"
   xmlns="http://www.w3.org/2000/svg"
   xmlns:sodipodi="http://sodipodi.sourceforge.net/DTD/sodipodi-0.dtd"
   xmlns:inkscape="http://www.inkscape.org/namespaces/inkscape"
   version="1.1"
   id="Layer_1"
   x="0px"
   y="0px"
   viewBox="0 0 500 500"
   style="enable-background:new 0 0 500 500;"
   xml:space="preserve"
   sodipodi:docname="iiserk.svg"
   inkscape:export-filename="C:\Users\Amardeep\Desktop\IISER-Kolkata-01.png"
   inkscape:export-xdpi="500.60001"
   inkscape:export-ydpi="500.60001"
   inkscape:version="1.0 (4035a4fb49, 2020-05-01)"><metadata
   id="metadata29"><rdf:RDF><cc:Work
       rdf:about=""><dc:format>image/svg+xml</dc:format><dc:type
         rdf:resource="http://purl.org/dc/dcmitype/StillImage" /><dc:title></dc:title></cc:Work></rdf:RDF></metadata><defs
   id="defs27" /><sodipodi:namedview
   inkscape:document-rotation="0"
   pagecolor="#ffffff"
   bordercolor="#666666"
   borderopacity="1"
   objecttolerance="10"
   gridtolerance="10"
   guidetolerance="10"
   inkscape:pageopacity="0"
   inkscape:pageshadow="2"
   inkscape:window-width="1920"
   inkscape:window-height="1001"
   id="namedview25"
   showgrid="false"
   inkscape:zoom="1.4142136"
   inkscape:cx="187.06483"
   inkscape:cy="286.17538"
   inkscape:window-x="-9"
   inkscape:window-y="-9"
   inkscape:window-maximized="1"
   inkscape:current-layer="Layer_1" />
<style
   type="text/css"
   id="style2">
	.st0{fill:#8D8D8D;}
	.st1{fill:#007FFF;}
</style>

<g
   style="fill:#ffffff"
   id="XMLID_1_-53"
   transform="matrix(1.3238332,0,0,1.3197837,-77.732475,-80.621934)"><path
     style="fill:#ffffff"
     d="m 235,143.7 c 3.1,-1.7 6.2,-3.5 9.3,-5 6.9,4.1 13.9,8.2 20,13.4 4.5,3.9 8.5,8.5 10.8,14.1 1.5,3.7 2.5,7.7 2.4,11.7 -0.7,5.6 -2.4,11.2 -5.7,15.8 -1.9,-3 -3.7,-6.2 -6,-8.9 -7.4,-9.1 -17.7,-15.3 -28.1,-20.5 -7.7,-3.9 -15.8,-7.1 -23.7,-10.6 7.1,-3.2 14.2,-6.3 21,-10 z"
     class="st0"
     id="XMLID_3_-4" /><path
     style="fill:#ffffff"
     d="m 150.7,177.2 c 0.8,3 1.3,6.1 2.4,9 0.9,2.3 1.9,4.4 3.1,6.6 4.9,8.2 11.8,15 19.4,20.7 5,3.8 10.3,7.2 15.8,10.2 7.1,3.7 14.6,6.4 21.9,9.6 -13.8,5.8 -27.7,11.5 -40.4,19.6 -6.7,-3.7 -13.5,-7.2 -20.6,-10 -6.8,-2.6 -13.8,-5 -21.1,-5.7 -6.2,-0.6 -12.4,-0.9 -18.6,-0.5 -6.1,0.2 -12.2,0.7 -18.1,2.2 -0.1,40.8 0,81.7 -0.1,122.5 0,1.3 0,2.7 0.1,4 33.8,0 67.7,0.1 101.5,0 -11.8,-5.1 -23.5,-11 -33.3,-19.4 -4.6,-4 -8.8,-8.6 -11.6,-14 -1.8,-3.4 -3,-7.2 -3.2,-11.2 0.8,-5.8 2.1,-11.8 5.3,-16.8 1.3,2.3 2.5,4.7 4.1,6.8 4,5.4 9.2,9.7 14.6,13.6 10,7.1 21,12.8 32.1,18 7.1,3.3 14.4,6.5 21.6,9.6 0.7,0.3 1.4,0.7 2.1,1 -2.6,1.2 -5.3,2.1 -8,3.2 -7.9,3.1 -15.7,6.5 -23.6,9.5 -7.3,2.9 -14.6,5.7 -21.9,8.6 -1.6,0.6 -3.2,1.5 -5,1.5 -28.3,0 -56.6,0 -84.9,0 -0.1,-48.2 0,-96.3 0,-144.5 7.7,-3.6 16.2,-4.8 24.5,-5.4 10.6,-0.5 21.4,0.2 31.8,2.3 7.1,1.3 13.9,3.7 20.4,6.7 2.3,1 4.4,2.3 6.8,3.1 -1.6,-1.5 -3.5,-2.6 -5.1,-4.1 -5.1,-4.3 -9.3,-10.1 -10.9,-16.6 -1.7,-5.9 -0.9,-12.1 -1,-18.1 0,-3.5 -0.3,-7 -0.1,-10.6 -0.1,-3.8 -0.4,-7.6 0,-11.4 z"
     class="st0"
     id="XMLID_4_-8" /><path
     style="fill:#ffffff"
     d="m 271.9,193.8 c 3.3,-4.7 5,-10.2 5.7,-15.8 0.3,1.4 0.4,2.8 0.4,4.3 0,8.5 0.1,17.1 -0.1,25.6 0.1,4.7 -0.6,9.4 -2.4,13.7 -2.2,5.4 -6.1,9.9 -10.6,13.5 -6,5 -13,8.5 -19.8,12.2 -5.7,2.9 -11.2,6.2 -17.1,9 -4.3,2.2 -8.8,4 -13.2,6.1 -13.7,6 -27.6,11.9 -40.2,20.1 -8.5,5.6 -16.6,12.4 -21.6,21.4 -3.1,5.1 -4.4,11 -5.3,16.8 -0.4,-3.3 0,-6.6 -0.3,-9.9 -0.2,-4.4 0.4,-8.8 0.1,-13.2 -0.2,-5.9 -0.4,-12 1.5,-17.7 1.8,-5.7 5.2,-10.9 9.3,-15.3 4.3,-4.6 9.3,-8.5 14.5,-11.9 12.7,-8.1 26.6,-13.8 40.4,-19.6 10.2,-4.2 20.6,-7.9 30,-13.7 5.4,-3.2 10.7,-6.8 15.5,-10.9 5.1,-4.1 9.8,-9 13.2,-14.7 z"
     class="st1"
     id="XMLID_5_-4" /><path
     style="fill:#ffffff"
     d="m 310,201.8 c 6.3,-2.3 13.2,-2.1 19.6,-0.4 9.7,2.7 18.4,8.5 25.6,15.4 -5.9,1.3 -11.6,3.9 -16,8.1 -5.6,5.1 -9.2,11.9 -11.7,18.8 -5,14.1 -6.5,29.1 -8.5,43.9 -1.3,9.2 -2.5,18.5 -5.3,27.5 -1.6,5.5 -4.4,10.5 -7.3,15.3 -5.7,9.5 -13.4,17.9 -22.6,24.1 -5.5,3.7 -11.6,6.6 -17.9,8.9 -2,0.8 -4.1,1.3 -6.1,2.2 3.8,0 7.6,-0.1 11.4,-0.2 2.5,-0.1 5,0.2 7.4,-0.6 11,-3.3 20.7,-10.3 28.4,-18.8 8.4,-9.3 14.8,-20.3 19.3,-32 5.6,-14.6 7.2,-30.3 11.7,-45.2 1.9,-6.1 4.1,-12.2 7.9,-17.3 3,-4.1 7.1,-7.6 12.1,-9.1 6.8,-2 14.3,-1.2 20.7,1.8 5.7,2.6 10.7,6.7 14.7,11.6 -11.3,3.5 -20.5,12.2 -25.7,22.8 -2.7,5 -4.1,10.6 -5.9,15.9 -4.1,12.7 -8,25.6 -14.1,37.5 -4.4,8.8 -10.1,17 -17.6,23.5 -4.6,4.1 -9.9,7.5 -15.6,10.1 3.8,0 7.6,-0.2 11.4,-0.2 2,0 3.8,-1.2 5.5,-2 9,-4.9 15.9,-12.7 21.3,-21.3 4.9,-8 8.9,-16.5 12.1,-25.3 1.9,-5.1 3.6,-10.3 5.8,-15.2 2.3,-5.1 5,-10.3 9.1,-14.3 3.4,-3.5 8,-5.9 12.9,-6.2 5.6,-0.4 11.7,0.5 16.2,4.1 3,2.4 5.3,5.5 7.2,8.8 -5.6,1.6 -10.8,4.6 -14.9,8.7 -6.3,6.3 -10.5,14.2 -14.4,22.2 -4.8,9.7 -8.9,19.8 -14.8,28.9 -4.8,7.5 -11.2,14.2 -19.3,18 -6.1,2.8 -12.8,3.9 -19.5,3.9 -6.3,0.3 -12.6,0 -18.8,0.3 -30.4,0 -60.8,0 -91.2,0 -8.8,-0.3 -17.6,-0.1 -26.4,-0.1 -3.1,-0.1 -6.2,0.2 -9.3,-0.1 1.3,-0.8 2.7,-1.3 4.1,-1.8 15.5,-5.8 31.3,-10.8 46.3,-17.8 12.1,-5.6 23.8,-12.6 33.1,-22.2 3.4,-3.6 6.7,-7.5 9.3,-11.8 4,-6.8 5.8,-14.6 6.6,-22.3 2.2,-20.7 -1.3,-41.4 0.6,-62.1 0.7,-7 2.2,-13.9 5.3,-20.2 3.7,-7.2 9.9,-13 17.3,-15.8 z"
     class="st0"
     id="XMLID_6_-65" /><path
     style="fill:#ffffff"
     d="m 228,256.3 c 5.8,-2.7 11.3,-6.1 17.1,-9 10.1,5.7 19.8,12.9 26.1,22.8 4.7,7.4 7.2,16.1 7.4,24.8 0.3,5.4 -0.5,10.8 -2.2,15.9 -1.6,-3.6 -3.2,-7.3 -5.5,-10.5 -7.3,-10.6 -18.3,-18 -29.3,-24.2 -7.1,-4 -14.3,-7.6 -21.6,-11.2 -1.7,-0.9 -3.4,-1.6 -5,-2.5 4.1,-2.2 8.6,-4 13,-6.1 z"
     class="st0"
     id="XMLID_7_-1" /><path
     style="fill:#ffffff"
     d="m 210.9,276.8 c 3.7,-0.4 7.4,-0.4 11,0.5 7.1,1.8 13.5,6.3 17.3,12.5 3.8,5.9 5.3,13.3 4.1,20.2 -1.8,11.6 -11.5,21.5 -23.1,23.5 -6.4,1.2 -13.3,0.2 -19.1,-3.1 -5.5,-3 -10,-7.8 -12.5,-13.6 -3,-6.6 -3.3,-14.4 -0.8,-21.3 3.6,-9.8 12.8,-17.3 23.1,-18.7 z"
     id="XMLID_8_-1" /><path
     style="fill:#ffffff"
     d="m 123.5,391.1 c 2.4,-2.3 5.8,-3.1 9,-3 3.3,-0.1 6.7,0.8 9.5,2.4 0,2.4 -0.3,4.9 -0.3,7.3 0,0.9 -0.1,1.8 -0.3,2.7 -2.3,-1.9 -5,-4 -8.2,-3.7 -2.6,-0.2 -4.1,3.2 -2.8,5.3 1.1,1.6 3,2.3 4.7,3.2 2.8,1.4 5.7,3.2 7.2,6.1 2.3,4.5 1.9,10 -0.3,14.4 -1.6,3.2 -4.6,5.4 -8.1,6.1 -4.5,0.9 -9.3,0.6 -13.4,-1.3 -0.7,-0.2 -0.8,-0.9 -0.8,-1.5 0.1,-3.1 0.2,-6.2 0.3,-9.3 1.8,1.3 3.6,2.9 5.9,3.3 2.1,0.4 4.5,0.7 6.2,-0.7 1.7,-1.4 1.7,-4.4 -0.1,-5.7 -2.6,-1.9 -5.8,-2.8 -8.2,-5 -2.5,-2 -3.9,-5.1 -4.1,-8.3 -0.4,-4.3 0.5,-9.2 3.8,-12.3 z"
     id="XMLID_9_-45" /><path
     style="fill:#ffffff"
     d="m 264.6,388.2 c -1.1,0 -2.1,0.1 -3.1,0.3 -3.8,0.8 -7.2,3.4 -9.1,6.7 -3.4,5.6 -3.9,12.4 -3.5,18.8 0.5,5 1.7,10.3 5.3,14 5.1,5.7 14.9,5.9 20.3,0.6 2.9,-2.8 4.5,-6.6 5.2,-10.5 1,-5 0.9,-10.1 0.1,-15.1 -0.9,-4.5 -2.8,-9 -6.4,-11.9 -2.5,-2 -5.6,-3 -8.8,-2.9 z m -0.1,5 c 2.2,-0.1 4.4,0.8 6,2.3 2.2,2.1 3.1,5.2 3.6,8.2 0.8,5.4 0.8,11 -0.8,16.2 -0.8,2.1 -1.8,4.3 -3.6,5.8 -2.9,2.3 -7.4,2.2 -10.2,-0.2 -2.4,-2.1 -3.6,-5.3 -4.1,-8.4 -1,-5.4 -0.8,-11.1 0.7,-16.4 0.9,-3.4 3.4,-6.6 7,-7.2 0.4,-0.2 0.9,-0.3 1.4,-0.3 z"
     id="XMLID_12_-7" /><path
     style="fill:#ffffff"
     d="m 84.1,389.2 c 3.7,-0.2 7.4,-0.1 11,-0.3 -0.2,9.1 -0.2,18.2 -0.1,27.3 0.3,3.4 -0.1,6.8 0.2,10.2 0.1,1.7 0,3.4 0,5 -3.7,0 -7.3,0 -10.9,0.2 -0.3,-3.6 -0.1,-7.2 -0.1,-10.9 0.4,-6.4 0.1,-12.8 0.2,-19.2 0.1,-4 -0.2,-8.2 -0.3,-12.3 z"
     id="XMLID_13_-9" /><path
     style="fill:#ffffff"
     d="m 354.3,388.9 c -2.1,0 -4.2,0.2 -6.3,0.2 -0.7,1.9 -1.1,4 -1.6,6 -3.2,12.2 -6.7,24.3 -10,36.5 1.9,0 3.7,-0.1 5.6,-0.2 1,-4.2 1.9,-8.5 3,-12.7 4,-0.2 8,-0.1 12.1,0 1,4.4 2,8.8 3,13.1 2.1,-0.1 4.1,0.1 6.2,-0.4 -3.4,-13.6 -7.1,-27.1 -10.3,-40.8 -0.2,-0.5 -0.2,-1.2 -0.6,-1.5 -0.5,-0.2 -0.8,-0.2 -1.1,-0.2 z m -3.1,4.8 c 1.6,6.7 3.1,13.4 4.7,20.1 -3.2,0 -6.4,0 -9.6,0 1.5,-6.7 3.2,-13.4 4.9,-20.1 z"
     id="XMLID_16_-9" /><path
     style="fill:#ffffff"
     d="m 364.8,389.1 c 5.1,-0.1 10.2,0.1 15.4,-0.2 2.9,0 5.7,0 8.6,0 -0.1,1.8 0,3.6 -0.2,5.3 -3.1,0.1 -6.1,-0.2 -9.2,-0.1 0,12.4 -0.1,24.9 0.3,37.3 -2,0 -4.1,0.1 -6.1,0.2 -0.1,-4.5 0.2,-9 0.2,-13.5 0,-6.2 0,-12.3 0,-18.5 0,-1.9 0.1,-3.7 -0.2,-5.6 -3.1,0.2 -6.2,0.2 -9.2,0.2 -0.1,-1.6 -0.4,-3.6 0.4,-5.1 z"
     id="XMLID_17_-2" /><path
     style="fill:#ffffff"
     d="m 403.5,388.9 c -2.3,0 -4.6,0.2 -6.9,0.2 -0.5,0 -0.6,0.6 -0.8,0.9 -2.7,10.8 -5.7,21.4 -8.7,32.1 -0.8,3.1 -1.9,6.2 -2.5,9.4 1.4,0 2.8,-0.1 4.2,-0.1 0.4,-0.1 1.3,0.1 1.4,-0.5 1,-4.1 1.8,-8.3 2.9,-12.3 4,-0.1 8,0 12,0 1.1,4.4 2,8.8 3,13.2 2,-0.1 4.1,-0.1 6.1,-0.3 -1.3,-6 -3,-11.9 -4.5,-17.8 -2.2,-8.4 -4,-16.6 -6.2,-24.8 z m -4.2,5.1 c 1,3.1 1.5,6.4 2.3,9.6 0.8,3.4 1.6,6.8 2.3,10.2 -3.2,0 -6.4,0 -9.6,0 1.7,-6.6 3.2,-13.3 5,-19.8 z"
     id="XMLID_20_-0" /><path
     style="fill:#ffffff"
     d="m 102.4,389.1 c 3.7,0 7.3,0 11,-0.2 -0.1,3 0.1,5.9 -0.2,8.9 0,6 0,12.1 0,18.1 0.3,3.4 0.1,6.7 0.2,10.1 0.2,1.8 0.1,3.6 0.1,5.5 -3.7,0 -7.4,0.1 -11,0.2 0,-5.4 -0.1,-10.7 0.1,-16.1 0,-8.8 0.1,-17.7 -0.2,-26.5 z"
     id="XMLID_21_-61" /><path
     style="fill:#ffffff"
     d="m 148.9,389.1 c 7.4,0 14.9,0 22.3,0 0,2.9 0,5.9 -0.3,8.8 -3.8,0.1 -7.6,0 -11.4,0 -0.1,2.5 0,5 0,7.5 3.6,0.2 7.2,-0.3 10.9,-0.2 0.1,2.9 -0.2,5.7 -0.4,8.6 -3.4,0.5 -6.9,0.1 -10.3,0.2 0,2.7 0,5.5 0,8.2 4.1,-0.2 8.3,0 12.3,-0.5 0.4,1.9 -0.1,3.9 -0.1,5.8 -0.1,1.3 0.1,2.7 -0.4,3.9 -1.5,0.2 -3.1,-0.2 -4.7,0 -5.9,-0.1 -11.8,0.2 -17.7,0.1 -0.3,-3.7 0.1,-7.5 0.1,-11.2 -0.1,-9.3 0.2,-18.6 -0.3,-27.9 0,-1 0,-2.1 0,-3.3 z"
     id="XMLID_22_-13" /><path
     style="fill:#ffffff"
     d="m 190.2,388.9 c -4.4,0.3 -8.7,0 -13.1,0.2 0.2,6.3 0.6,12.6 0.5,18.9 0.1,5.5 -0.2,11.1 -0.1,16.6 0.1,2.4 -0.3,4.7 -0.1,7 3.5,0.2 7,-0.1 10.5,-0.1 0,-5.2 -0.4,-10.4 -0.2,-15.7 0.5,0 1,0 1.5,-0.1 1.8,4.6 3.6,9.1 5.1,13.8 0.3,0.7 0.4,1.5 1,2 0.9,0.2 1.9,0 2.9,0 2.6,-0.2 5.3,-0.1 7.9,-0.6 -0.4,-1.1 -0.8,-2.1 -1.4,-3.2 -2.4,-4.9 -4.4,-9.9 -6.4,-14.9 3.7,-1.8 5.5,-6 5.8,-9.9 0.4,-4.1 -0.4,-8.6 -3.4,-11.6 -2.9,-2.3 -6.9,-2.3 -10.5,-2.4 z m -1,8.8 c 1.5,0 3.1,0 4,1.3 1.2,2.1 1.2,5.1 -0.4,7.1 -1.3,1.4 -3.4,1.5 -5.1,1.6 0.1,-3.3 0.1,-6.6 0.1,-10 0.4,0 0.9,0 1.4,0 z"
     id="XMLID_25_-2" /><path
     style="fill:#ffffff"
     d="m 223.9,389.1 c 2,0 3.9,-0.3 5.9,-0.2 0.1,6.4 -0.4,12.8 -0.1,19.3 3.6,-5.1 6.8,-10.4 10.2,-15.7 0.8,-1.1 1.2,-2.6 2.3,-3.4 2,0 3.9,-0.3 5.9,-0.1 -1.9,3.4 -4.3,6.5 -6.5,9.8 -2.1,3.1 -4.1,6.2 -6.1,9.3 4.4,7.5 9.1,14.9 13.9,22.1 0.3,0.4 0.3,0.9 0.3,1.3 -2.2,0 -4.4,0.1 -6.7,0.2 -4.3,-7.4 -8.6,-14.7 -13.3,-21.9 -0.2,7.3 0.3,14.5 0.2,21.8 -1.9,0 -3.9,0.1 -5.8,0.1 0.2,-11.4 0,-22.8 0.1,-34.2 0.1,-2.8 -0.4,-5.6 -0.3,-8.4 z"
     id="XMLID_26_-51" /><path
     style="fill:#ffffff"
     d="m 285.8,389.1 c 2.1,0 4.2,-0.3 6.3,-0.2 0,5 -0.4,10 -0.3,14.9 -0.2,4.6 -0.1,9.3 -0.1,13.9 0,2.8 -0.1,5.6 0.2,8.4 2.7,0 5.3,0 8,0 1.8,-0.2 3.6,-0.2 5.4,-0.1 0.1,1.8 0,3.7 -0.2,5.5 -4.5,0.2 -9,-0.1 -13.4,0.2 -1.8,0 -3.7,0.1 -5.5,0 -0.2,-2.3 0.1,-4.7 0.1,-7 -0.1,-6.3 0.2,-12.6 0.1,-18.8 -0.3,-5.7 -0.2,-11.2 -0.6,-16.8 z"
     id="XMLID_27_-2" /><path
     style="fill:#ffffff"
     d="m 309.6,389.6 c 0.1,-0.1 0.4,-0.4 0.5,-0.5 1.9,0 3.7,-0.3 5.6,-0.1 -0.1,6.5 -0.3,12.9 -0.2,19.4 4.2,-6.4 8.3,-12.8 12.3,-19.3 2,0.1 4,-0.3 6,-0.1 -1,2.3 -2.7,4.2 -4,6.3 -2.9,4.2 -5.7,8.4 -8.4,12.7 3.7,6.4 7.7,12.7 11.7,18.9 0.9,1.4 1.9,2.6 2.6,4.1 -0.1,0.1 -0.3,0.4 -0.4,0.5 -2.2,0 -4.3,0.1 -6.5,0.1 -4.3,-7.4 -8.6,-14.7 -13.2,-21.9 -0.2,4.3 0.2,8.6 0.1,13 -0.1,2.9 0.4,5.9 0.2,8.8 -1.9,0 -3.9,0.1 -5.8,0.2 -0.2,-4.5 0.2,-9 0.1,-13.5 -0.3,-9.5 0,-19.1 -0.6,-28.6 z"
     id="XMLID_28_-87" /><path
     style="fill:#ffffff"
     d="m 275,83.3 c 3.3,-4.7 5,-10.2 5.7,-15.8 0.3,1.4 0.4,2.8 0.4,4.3 0,8.5 0.1,17.1 -0.1,25.6 0.1,4.7 -0.6,9.4 -2.4,13.7 -2.2,5.4 -6.1,9.9 -10.6,13.5 -6,5 -13,8.5 -19.8,12.2 -5.7,2.9 -11.2,6.2 -17.1,9 -4.3,2.2 -8.8,4 -13.2,6.1 -13.7,6 -27.6,11.9 -40.2,20.1 -8.5,5.6 -16.6,12.4 -21.6,21.4 -3.1,5.1 -4.4,11 -5.3,16.8 -0.4,-3.3 0,-6.6 -0.3,-9.9 -0.2,-4.4 0.4,-8.8 0.1,-13.2 -0.2,-5.9 -0.4,-12 1.5,-17.7 1.8,-5.7 5.2,-10.9 9.3,-15.3 4.3,-4.6 9.3,-8.5 14.5,-11.9 12.7,-8.1 26.6,-13.8 40.4,-19.6 10.2,-4.2 20.6,-7.9 30,-13.7 5.4,-3.2 10.7,-6.8 15.5,-10.9 5.1,-4.1 9.8,-8.9 13.2,-14.7 z"
     class="st1"
     id="XMLID_29_-68" /></g><path
   style="opacity:1;fill:#008000;fill-rule:evenodd;stroke:none;stroke-width:1"
   d=""
   id="path7187" /><path
   style="opacity:1;fill:#008000;fill-rule:evenodd;stroke:none"
   d=""
   id="path7251" /><path
   style="opacity:1;fill:#008000;fill-rule:evenodd;stroke:none;stroke-width:1"
   d=""
   id="path7269" /></svg>
