<?xml version="1.0" encoding="UTF-8" standalone="no"?>
<svg
   xmlns:dc="http://purl.org/dc/elements/1.1/"
   xmlns:cc="http://creativecommons.org/ns#"
   xmlns:rdf="http://www.w3.org/1999/02/22-rdf-syntax-ns#"
   xmlns:svg="http://www.w3.org/2000/svg"
   xmlns="http://www.w3.org/2000/svg"
   xmlns:sodipodi="http://sodipodi.sourceforge.net/DTD/sodipodi-0.dtd"
   xmlns:inkscape="http://www.inkscape.org/namespaces/inkscape"
   inkscape:version="1.0 (4035a4fb49, 2020-05-01)"
   sodipodi:docname="insta.svg"
   xml:space="preserve"
   viewBox="0 0 1000 1000"
   version="1.1"
   style="enable-background:new 0 0 1000 1000;"
   id="Layer_1"><metadata
     id="metadata50"><rdf:RDF><cc:Work
         rdf:about=""><dc:format>image/svg+xml</dc:format><dc:type
           rdf:resource="http://purl.org/dc/dcmitype/StillImage" /></cc:Work></rdf:RDF></metadata><defs
     id="defs48" /><sodipodi:namedview
     inkscape:current-layer="Layer_1"
     inkscape:window-maximized="1"
     inkscape:window-y="-9"
     inkscape:window-x="-9"
     inkscape:cy="918.74731"
     inkscape:cx="277.15939"
     inkscape:zoom="0.30617724"
     showgrid="false"
     id="namedview46"
     inkscape:window-height="1001"
     inkscape:window-width="1920"
     inkscape:pageshadow="2"
     inkscape:pageopacity="0"
     guidetolerance="10"
     gridtolerance="10"
     objecttolerance="10"
     borderopacity="1"
     bordercolor="#666666"
     pagecolor="#ffffff" /><style
     id="style2"
     type="text/css">
	.st0{fill:url(#SVGID_1_);}
	.st1{fill:#FFFFFF;}
</style><linearGradient
     y2="146.4465"
     y1="853.5535"
     x2="853.5535"
     x1="146.4465"
     id="SVGID_1_"
     gradientUnits="userSpaceOnUse"><stop
       id="stop4"
       style="stop-color:#FFD521"
       offset="0" /><stop
       id="stop6"
       style="stop-color:#FFD020"
       offset="5.510481e-02" /><stop
       id="stop8"
       style="stop-color:#FEC01E"
       offset="0.1241" /><stop
       id="stop10"
       style="stop-color:#FCA71B"
       offset="0.2004" /><stop
       id="stop12"
       style="stop-color:#FA8316"
       offset="0.2821" /><stop
       id="stop14"
       style="stop-color:#F85510"
       offset="0.3681" /><stop
       id="stop16"
       style="stop-color:#F51E09"
       offset="0.4563" /><stop
       id="stop18"
       style="stop-color:#F30005"
       offset="0.5" /><stop
       id="stop20"
       style="stop-color:#F20007"
       offset="0.5035" /><stop
       id="stop22"
       style="stop-color:#E1003B"
       offset="0.5966" /><stop
       id="stop24"
       style="stop-color:#D30067"
       offset="0.6879" /><stop
       id="stop26"
       style="stop-color:#C70088"
       offset="0.7757" /><stop
       id="stop28"
       style="stop-color:#BF00A0"
       offset="0.8589" /><stop
       id="stop30"
       style="stop-color:#BB00AF"
       offset="0.9357" /><stop
       id="stop32"
       style="stop-color:#B900B4"
       offset="1" /></linearGradient><path
     d="M 500 0 C 223.9 0 0 223.9 0 500 C 0 776.1 223.9 1000 500 1000 C 776.1 1000 1000 776.1 1000 500 C 1000 223.9 776.1 0 500 0 z M 500 158.69922 C 592.7 158.69922 604.29961 159.09922 640.59961 160.69922 C 676.99961 162.39922 701.8 168.19961 723.5 176.59961 C 746 185.39961 765 197 784 216 C 803 234.9 814.70039 254.00078 823.40039 276.30078 C 831.90039 298.10078 837.60078 322.89922 839.30078 359.19922 C 841.00078 395.59922 841.40039 407.20039 841.40039 499.90039 C 841.40039 592.60039 841.00078 604.19961 839.30078 640.59961 C 837.60078 676.99961 831.80039 701.8 823.40039 723.5 C 814.60039 746 803 765 784 784 C 765.1 803 745.99922 814.70039 723.69922 823.40039 C 701.89922 831.90039 677.10078 837.60078 640.80078 839.30078 C 604.40078 841.00078 592.79961 841.40039 500.09961 841.40039 C 407.39961 841.40039 395.80039 841.00078 359.40039 839.30078 C 323.00039 837.60078 298.2 831.80039 276.5 823.40039 C 254 814.60039 235 803 216 784 C 197 765.1 185.29961 745.99922 176.59961 723.69922 C 168.09961 701.89922 162.39922 677.10078 160.69922 640.80078 C 158.99922 604.40078 158.59961 592.79961 158.59961 500.09961 C 158.59961 407.39961 158.99922 395.80039 160.69922 359.40039 C 162.39922 323.00039 168.19961 298.2 176.59961 276.5 C 185.39961 254 197 235 216 216 C 234.9 197 254.00039 185.29922 276.40039 176.69922 C 298.20039 168.19922 323.00078 162.50078 359.30078 160.80078 C 395.70078 159.10078 407.3 158.69922 500 158.69922 z M 500 220.19922 C 408.9 220.19922 398.09961 220.49922 362.09961 222.19922 C 328.79961 223.79922 310.69922 229.3 298.69922 234 C 282.79922 240.2 271.4 247.6 259.5 259.5 C 247.6 271.4 240.2 282.79922 234 298.69922 C 229.3 310.69922 223.69922 328.79961 222.19922 362.09961 C 220.49922 398.09961 220.19922 408.9 220.19922 500 C 220.19922 591.1 220.59922 601.90039 222.19922 637.90039 C 223.79922 671.20039 229.3 689.30078 234 701.30078 C 240.2 717.20078 247.6 728.6 259.5 740.5 C 271.4 752.4 282.79922 759.8 298.69922 766 C 310.69922 770.7 328.79961 776.30078 362.09961 777.80078 C 398.09961 779.50078 408.9 779.80078 500 779.80078 C 591.1 779.80078 601.90039 779.40078 637.90039 777.80078 C 671.20039 776.20078 689.30078 770.7 701.30078 766 C 717.20078 759.8 728.6 752.4 740.5 740.5 C 752.4 728.6 759.8 717.20078 766 701.30078 C 770.7 689.30078 776.30078 671.20039 777.80078 637.90039 C 779.50078 601.90039 779.80078 591.1 779.80078 500 C 779.80078 408.9 779.40078 398.09961 777.80078 362.09961 C 776.20078 328.79961 770.7 310.69922 766 298.69922 C 759.8 282.79922 752.4 271.4 740.5 259.5 C 728.6 247.6 717.20078 240.2 701.30078 234 C 689.30078 229.3 671.20039 223.69922 637.90039 222.19922 C 601.90039 220.49922 591.1 220.19922 500 220.19922 z M 681.87109 276.80078 A 41 41 0 0 1 682.19922 276.80078 A 41 41 0 0 1 723.19922 317.80078 A 41 41 0 0 1 682.19922 358.80078 A 41 41 0 0 1 641.19922 317.80078 A 41 41 0 0 1 681.87109 276.80078 z M 500 324.69922 C 596.8 324.69922 675.30078 403.2 675.30078 500 C 675.30078 596.8 596.8 675.30078 500 675.30078 C 403.2 675.30078 324.69922 596.8 324.69922 500 C 324.69922 403.2 403.2 324.69922 500 324.69922 z M 500 386.19922 C 437.2 386.19922 386.19922 437.1 386.19922 500 C 386.19922 562.9 437.2 613.80078 500 613.80078 C 562.8 613.80078 613.80078 562.9 613.80078 500 C 613.80078 437.1 562.8 386.19922 500 386.19922 z "
     style="fill:#ffffff"
     id="path35" /></svg>
