<?xml version="1.0" encoding="UTF-8" standalone="no"?>
<svg
   xmlns:dc="http://purl.org/dc/elements/1.1/"
   xmlns:cc="http://creativecommons.org/ns#"
   xmlns:rdf="http://www.w3.org/1999/02/22-rdf-syntax-ns#"
   xmlns:svg="http://www.w3.org/2000/svg"
   xmlns="http://www.w3.org/2000/svg"
   xmlns:sodipodi="http://sodipodi.sourceforge.net/DTD/sodipodi-0.dtd"
   xmlns:inkscape="http://www.inkscape.org/namespaces/inkscape"
   height="67"
   style="clip-rule:evenodd;fill-rule:evenodd;stroke-linejoin:round;stroke-miterlimit:2"
   version="1.1"
   viewBox="0 0 67 67"
   width="67"
   xml:space="preserve"
   id="svg4"
   sodipodi:docname="twitter.svg"
   inkscape:version="1.0 (4035a4fb49, 2020-05-01)"><metadata
     id="metadata10"><rdf:RDF><cc:Work
         rdf:about=""><dc:format>image/svg+xml</dc:format><dc:type
           rdf:resource="http://purl.org/dc/dcmitype/StillImage" /><dc:title /></cc:Work></rdf:RDF></metadata><defs
     id="defs8" /><sodipodi:namedview
     inkscape:document-rotation="0"
     pagecolor="#ffffff"
     bordercolor="#666666"
     borderopacity="1"
     objecttolerance="10"
     gridtolerance="10"
     guidetolerance="10"
     inkscape:pageopacity="0"
     inkscape:pageshadow="2"
     inkscape:window-width="1920"
     inkscape:window-height="1001"
     id="namedview6"
     showgrid="false"
     inkscape:zoom="58.775712"
     inkscape:cx="4.7576959"
     inkscape:cy="36.943469"
     inkscape:window-x="-9"
     inkscape:window-y="-9"
     inkscape:window-maximized="1"
     inkscape:current-layer="svg4" /><path
     d="m 33.440451,0 c 18.390523,0 33.321352,14.930829 33.321352,33.321354 0,18.390523 -14.930829,33.321352 -33.321352,33.321352 -18.390525,0 -33.32135419,-14.930829 -33.32135419,-33.321352 C 0.11909681,14.930829 15.049926,0 33.440451,0 Z m -5.869115,51.043888 c 14.74509,0 22.807425,-12.218264 22.807425,-22.807296 0,-0.349092 0,-0.698186 -0.01667,-1.030749 1.562589,-1.130323 2.92577,-2.543355 4.006242,-4.155796 -1.429565,0.631674 -2.975624,1.06394 -4.604724,1.263347 1.662422,-0.997428 2.92577,-2.560017 3.524252,-4.438378 -1.546058,0.914254 -3.258202,1.57912 -5.086842,1.944874 -1.462886,-1.562589 -3.540785,-2.526696 -5.851412,-2.526696 -4.421849,0 -8.012484,3.590636 -8.012484,8.012483 0,0.631674 0.06651,1.246688 0.216068,1.82851 -6.665962,-0.332433 -12.567356,-3.524125 -16.523617,-8.378237 -0.681655,1.180304 -1.0806,2.560016 -1.0806,4.022901 0,2.776086 1.413033,5.236399 3.574106,6.665963 -1.31333,-0.03319 -2.543487,-0.398944 -3.623958,-0.997297 v 0.09971 c 0,3.889877 2.759425,7.114759 6.433234,7.862928 -0.664866,0.182746 -1.379712,0.28258 -2.11109,0.28258 -0.51544,0 -1.014089,-0.04985 -1.512737,-0.149685 1.013958,3.19169 3.972921,5.502448 7.480513,5.568831 -2.742893,2.144541 -6.200505,3.42455 -9.957488,3.42455 -0.648334,0 -1.280008,-0.03331 -1.911682,-0.116365 3.507592,2.293967 7.729904,3.623828 12.251454,3.623828 z"
     id="path2"
     style="stroke-width:0.130162;fill:#ffffff" /></svg>
